<mxfile host="app.diagrams.net" modified="2024-01-02T13:59:04.770Z" agent="Mozilla/5.0 (Windows NT 10.0; Win64; x64; rv:121.0) Gecko/20100101 Firefox/121.0" etag="BCyyc7v9EVtmwBrRKof-" version="22.1.16" type="github" pages="7">
  <diagram name="UML (Sequence: Job Uploading) " id="2YBvvXClWsGukQMizWep">
    <mxGraphModel dx="689" dy="276" grid="1" gridSize="10" guides="1" tooltips="1" connect="1" arrows="1" fold="1" page="1" pageScale="1" pageWidth="850" pageHeight="1100" math="0" shadow="0">
      <root>
        <mxCell id="0" />
        <mxCell id="1" parent="0" />
        <mxCell id="PUHHN2C5qQDCYkUH07pB-1" value="system" style="shape=umlLifeline;perimeter=lifelinePerimeter;whiteSpace=wrap;html=1;container=0;dropTarget=0;collapsible=0;recursiveResize=0;outlineConnect=0;portConstraint=eastwest;newEdgeStyle={&quot;edgeStyle&quot;:&quot;elbowEdgeStyle&quot;,&quot;elbow&quot;:&quot;vertical&quot;,&quot;curved&quot;:0,&quot;rounded&quot;:0};movable=1;resizable=1;rotatable=1;deletable=1;editable=1;locked=0;connectable=1;" vertex="1" parent="1">
          <mxGeometry x="430" y="320" width="100" height="480" as="geometry" />
        </mxCell>
        <mxCell id="Xd4hx1CgdsaKXn67NXFA-8" value="job uploading" style="shape=umlLifeline;perimeter=lifelinePerimeter;whiteSpace=wrap;html=1;container=0;dropTarget=0;collapsible=0;recursiveResize=0;outlineConnect=0;portConstraint=eastwest;newEdgeStyle={&quot;edgeStyle&quot;:&quot;elbowEdgeStyle&quot;,&quot;elbow&quot;:&quot;vertical&quot;,&quot;curved&quot;:0,&quot;rounded&quot;:0};movable=1;resizable=1;rotatable=1;deletable=1;editable=1;locked=0;connectable=1;" vertex="1" parent="1">
          <mxGeometry x="270" y="320" width="100" height="480" as="geometry" />
        </mxCell>
        <mxCell id="Xr6KxHBnVZtuzwrLnPML-2" value="" style="html=1;points=[];perimeter=orthogonalPerimeter;outlineConnect=0;targetShapes=umlLifeline;portConstraint=eastwest;newEdgeStyle={&quot;edgeStyle&quot;:&quot;elbowEdgeStyle&quot;,&quot;elbow&quot;:&quot;vertical&quot;,&quot;curved&quot;:0,&quot;rounded&quot;:0};container=0;movable=1;resizable=1;rotatable=1;deletable=1;editable=1;locked=0;connectable=1;" vertex="1" parent="Xd4hx1CgdsaKXn67NXFA-8">
          <mxGeometry x="45" y="100" width="10" height="340" as="geometry" />
        </mxCell>
        <mxCell id="Xr6KxHBnVZtuzwrLnPML-3" value="" style="html=1;points=[];perimeter=orthogonalPerimeter;outlineConnect=0;targetShapes=umlLifeline;portConstraint=eastwest;newEdgeStyle={&quot;edgeStyle&quot;:&quot;elbowEdgeStyle&quot;,&quot;elbow&quot;:&quot;vertical&quot;,&quot;curved&quot;:0,&quot;rounded&quot;:0};container=0;movable=1;resizable=1;rotatable=1;deletable=1;editable=1;locked=0;connectable=1;" vertex="1" parent="Xd4hx1CgdsaKXn67NXFA-8">
          <mxGeometry x="50" y="260" width="10" height="40" as="geometry" />
        </mxCell>
        <mxCell id="Xd4hx1CgdsaKXn67NXFA-10" value="database" style="shape=umlLifeline;perimeter=lifelinePerimeter;whiteSpace=wrap;html=1;container=0;dropTarget=0;collapsible=0;recursiveResize=0;outlineConnect=0;portConstraint=eastwest;newEdgeStyle={&quot;edgeStyle&quot;:&quot;elbowEdgeStyle&quot;,&quot;elbow&quot;:&quot;vertical&quot;,&quot;curved&quot;:0,&quot;rounded&quot;:0};movable=1;resizable=1;rotatable=1;deletable=1;editable=1;locked=0;connectable=1;" vertex="1" parent="1">
          <mxGeometry x="590" y="320" width="100" height="480" as="geometry" />
        </mxCell>
        <mxCell id="rt212o47yRLD19ke77MR-7" value="displaying the job uploading page" style="text;html=1;strokeColor=none;fillColor=none;align=center;verticalAlign=middle;whiteSpace=wrap;rounded=0;movable=1;resizable=1;rotatable=1;deletable=1;editable=1;locked=0;connectable=1;" vertex="1" parent="1">
          <mxGeometry x="180" y="390" width="120" height="30" as="geometry" />
        </mxCell>
        <mxCell id="DczILSoo3hNqs6Ibvgyh-1" value="UMKM" style="shape=umlLifeline;perimeter=lifelinePerimeter;whiteSpace=wrap;html=1;container=0;dropTarget=0;collapsible=0;recursiveResize=0;outlineConnect=0;portConstraint=eastwest;newEdgeStyle={&quot;edgeStyle&quot;:&quot;elbowEdgeStyle&quot;,&quot;elbow&quot;:&quot;vertical&quot;,&quot;curved&quot;:0,&quot;rounded&quot;:0};movable=1;resizable=1;rotatable=1;deletable=1;editable=1;locked=0;connectable=1;" vertex="1" parent="1">
          <mxGeometry x="110" y="320" width="100" height="480" as="geometry" />
        </mxCell>
        <mxCell id="DczILSoo3hNqs6Ibvgyh-4" value="" style="endArrow=classic;html=1;rounded=0;movable=1;resizable=1;rotatable=1;deletable=1;editable=1;locked=0;connectable=1;" edge="1" parent="1">
          <mxGeometry width="50" height="50" relative="1" as="geometry">
            <mxPoint x="165" y="479.46000000000004" as="sourcePoint" />
            <mxPoint x="315" y="479.46000000000004" as="targetPoint" />
          </mxGeometry>
        </mxCell>
        <mxCell id="DczILSoo3hNqs6Ibvgyh-5" value="input title, detail, media, and tag" style="text;html=1;strokeColor=none;fillColor=none;align=center;verticalAlign=middle;whiteSpace=wrap;rounded=0;movable=1;resizable=1;rotatable=1;deletable=1;editable=1;locked=0;connectable=1;" vertex="1" parent="1">
          <mxGeometry x="180" y="449.46000000000004" width="120" height="30" as="geometry" />
        </mxCell>
        <mxCell id="DczILSoo3hNqs6Ibvgyh-7" value="uploading title, detail, media, and tag" style="text;html=1;strokeColor=none;fillColor=none;align=center;verticalAlign=middle;whiteSpace=wrap;rounded=0;movable=1;resizable=1;rotatable=1;deletable=1;editable=1;locked=0;connectable=1;" vertex="1" parent="1">
          <mxGeometry x="340" y="469.68" width="120" height="30" as="geometry" />
        </mxCell>
        <mxCell id="DczILSoo3hNqs6Ibvgyh-8" style="edgeStyle=elbowEdgeStyle;rounded=0;orthogonalLoop=1;jettySize=auto;html=1;elbow=vertical;curved=0;movable=1;resizable=1;rotatable=1;deletable=1;editable=1;locked=0;connectable=1;" edge="1" parent="1">
          <mxGeometry relative="1" as="geometry">
            <mxPoint x="325" y="499.7325" as="sourcePoint" />
            <mxPoint x="474.9999999999999" y="499.7325" as="targetPoint" />
          </mxGeometry>
        </mxCell>
        <mxCell id="Xd4hx1CgdsaKXn67NXFA-4" value="" style="html=1;points=[];perimeter=orthogonalPerimeter;outlineConnect=0;targetShapes=umlLifeline;portConstraint=eastwest;newEdgeStyle={&quot;edgeStyle&quot;:&quot;elbowEdgeStyle&quot;,&quot;elbow&quot;:&quot;vertical&quot;,&quot;curved&quot;:0,&quot;rounded&quot;:0};container=0;movable=1;resizable=1;rotatable=1;deletable=1;editable=1;locked=0;connectable=1;" vertex="1" parent="1">
          <mxGeometry x="475" y="420" width="10" height="340" as="geometry" />
        </mxCell>
        <mxCell id="DczILSoo3hNqs6Ibvgyh-10" value="" style="html=1;points=[];perimeter=orthogonalPerimeter;outlineConnect=0;targetShapes=umlLifeline;portConstraint=eastwest;newEdgeStyle={&quot;edgeStyle&quot;:&quot;elbowEdgeStyle&quot;,&quot;elbow&quot;:&quot;vertical&quot;,&quot;curved&quot;:0,&quot;rounded&quot;:0};container=0;movable=1;resizable=1;rotatable=1;deletable=1;editable=1;locked=0;connectable=1;" vertex="1" parent="1">
          <mxGeometry x="480" y="540" width="10" height="40" as="geometry" />
        </mxCell>
        <mxCell id="Xd4hx1CgdsaKXn67NXFA-11" value="" style="html=1;points=[];perimeter=orthogonalPerimeter;outlineConnect=0;targetShapes=umlLifeline;portConstraint=eastwest;newEdgeStyle={&quot;edgeStyle&quot;:&quot;elbowEdgeStyle&quot;,&quot;elbow&quot;:&quot;vertical&quot;,&quot;curved&quot;:0,&quot;rounded&quot;:0};container=0;movable=1;resizable=1;rotatable=1;deletable=1;editable=1;locked=0;connectable=1;" vertex="1" parent="1">
          <mxGeometry x="635" y="420" width="10" height="340" as="geometry" />
        </mxCell>
        <mxCell id="DczILSoo3hNqs6Ibvgyh-17" value="data validation" style="text;html=1;strokeColor=none;fillColor=none;align=center;verticalAlign=middle;whiteSpace=wrap;rounded=0;movable=1;resizable=1;rotatable=1;deletable=1;editable=1;locked=0;connectable=1;" vertex="1" parent="1">
          <mxGeometry x="490" y="490" width="60" height="30" as="geometry" />
        </mxCell>
        <mxCell id="DczILSoo3hNqs6Ibvgyh-25" value="the data are wrong" style="text;html=1;strokeColor=none;fillColor=none;align=center;verticalAlign=middle;whiteSpace=wrap;rounded=0;movable=1;resizable=1;rotatable=1;deletable=1;editable=1;locked=0;connectable=1;" vertex="1" parent="1">
          <mxGeometry x="180" y="590" width="120" height="30" as="geometry" />
        </mxCell>
        <mxCell id="MY55Caea-_kO5svuLmrP-1" style="edgeStyle=elbowEdgeStyle;rounded=0;orthogonalLoop=1;jettySize=auto;html=1;elbow=vertical;curved=0;movable=1;resizable=1;rotatable=1;deletable=1;editable=1;locked=0;connectable=1;" edge="1" parent="1">
          <mxGeometry relative="1" as="geometry">
            <mxPoint x="485" y="600.0024999999999" as="sourcePoint" />
            <mxPoint x="634.9999999999999" y="600.0024999999999" as="targetPoint" />
          </mxGeometry>
        </mxCell>
        <mxCell id="MY55Caea-_kO5svuLmrP-2" value="storing data to database" style="text;html=1;strokeColor=none;fillColor=none;align=center;verticalAlign=middle;whiteSpace=wrap;rounded=0;movable=1;resizable=1;rotatable=1;deletable=1;editable=1;locked=0;connectable=1;" vertex="1" parent="1">
          <mxGeometry x="505" y="570" width="120" height="30" as="geometry" />
        </mxCell>
        <mxCell id="MY55Caea-_kO5svuLmrP-5" value="" style="endArrow=block;dashed=1;endFill=0;endSize=12;html=1;rounded=0;" edge="1" parent="1">
          <mxGeometry width="160" relative="1" as="geometry">
            <mxPoint x="315" y="420.0000000000001" as="sourcePoint" />
            <mxPoint x="165" y="420.0000000000001" as="targetPoint" />
          </mxGeometry>
        </mxCell>
        <mxCell id="MY55Caea-_kO5svuLmrP-6" value="" style="endArrow=block;dashed=1;endFill=0;endSize=12;html=1;rounded=0;" edge="1" parent="1" source="Xr6KxHBnVZtuzwrLnPML-3">
          <mxGeometry width="160" relative="1" as="geometry">
            <mxPoint x="315" y="620" as="sourcePoint" />
            <mxPoint x="165" y="620" as="targetPoint" />
          </mxGeometry>
        </mxCell>
        <mxCell id="MY55Caea-_kO5svuLmrP-7" value="" style="endArrow=block;dashed=1;endFill=0;endSize=12;html=1;rounded=0;" edge="1" parent="1" source="DczILSoo3hNqs6Ibvgyh-10">
          <mxGeometry width="160" relative="1" as="geometry">
            <mxPoint x="475" y="580.0000000000001" as="sourcePoint" />
            <mxPoint x="330" y="580" as="targetPoint" />
          </mxGeometry>
        </mxCell>
        <mxCell id="MWgk2WjyAF0wgTvY17KL-1" value="displaying the detail job " style="text;html=1;strokeColor=none;fillColor=none;align=center;verticalAlign=middle;whiteSpace=wrap;rounded=0;movable=1;resizable=1;rotatable=1;deletable=1;editable=1;locked=0;connectable=1;" vertex="1" parent="1">
          <mxGeometry x="505" y="629.9999999999999" width="120" height="30" as="geometry" />
        </mxCell>
        <mxCell id="MWgk2WjyAF0wgTvY17KL-2" value="" style="endArrow=block;dashed=1;endFill=0;endSize=12;html=1;rounded=0;" edge="1" parent="1">
          <mxGeometry width="160" relative="1" as="geometry">
            <mxPoint x="635" y="660.0000000000001" as="sourcePoint" />
            <mxPoint x="485" y="660.0000000000001" as="targetPoint" />
          </mxGeometry>
        </mxCell>
        <mxCell id="MWgk2WjyAF0wgTvY17KL-3" value="the data are wrong" style="text;html=1;strokeColor=none;fillColor=none;align=center;verticalAlign=middle;whiteSpace=wrap;rounded=0;movable=1;resizable=1;rotatable=1;deletable=1;editable=1;locked=0;connectable=1;" vertex="1" parent="1">
          <mxGeometry x="340" y="550" width="120" height="30" as="geometry" />
        </mxCell>
        <mxCell id="MWgk2WjyAF0wgTvY17KL-5" value="displaying the detail job " style="text;html=1;strokeColor=none;fillColor=none;align=center;verticalAlign=middle;whiteSpace=wrap;rounded=0;movable=1;resizable=1;rotatable=1;deletable=1;editable=1;locked=0;connectable=1;" vertex="1" parent="1">
          <mxGeometry x="340" y="649.9999999999999" width="120" height="30" as="geometry" />
        </mxCell>
        <mxCell id="MWgk2WjyAF0wgTvY17KL-6" value="" style="endArrow=block;dashed=1;endFill=0;endSize=12;html=1;rounded=0;" edge="1" parent="1">
          <mxGeometry width="160" relative="1" as="geometry">
            <mxPoint x="475" y="680.0000000000001" as="sourcePoint" />
            <mxPoint x="325" y="680.0000000000001" as="targetPoint" />
          </mxGeometry>
        </mxCell>
        <mxCell id="MWgk2WjyAF0wgTvY17KL-7" value="displaying the detail job " style="text;html=1;strokeColor=none;fillColor=none;align=center;verticalAlign=middle;whiteSpace=wrap;rounded=0;movable=1;resizable=1;rotatable=1;deletable=1;editable=1;locked=0;connectable=1;" vertex="1" parent="1">
          <mxGeometry x="180" y="669.9999999999999" width="120" height="30" as="geometry" />
        </mxCell>
        <mxCell id="MWgk2WjyAF0wgTvY17KL-8" value="" style="endArrow=block;dashed=1;endFill=0;endSize=12;html=1;rounded=0;" edge="1" parent="1">
          <mxGeometry width="160" relative="1" as="geometry">
            <mxPoint x="315" y="700.0000000000001" as="sourcePoint" />
            <mxPoint x="165" y="700.0000000000001" as="targetPoint" />
          </mxGeometry>
        </mxCell>
        <mxCell id="MWgk2WjyAF0wgTvY17KL-12" value="discard the data" style="text;html=1;strokeColor=none;fillColor=none;align=center;verticalAlign=middle;whiteSpace=wrap;rounded=0;movable=1;resizable=1;rotatable=1;deletable=1;editable=1;locked=0;connectable=1;" vertex="1" parent="1">
          <mxGeometry x="180" y="509.99999999999994" width="120" height="30" as="geometry" />
        </mxCell>
        <mxCell id="MWgk2WjyAF0wgTvY17KL-13" value="" style="endArrow=block;dashed=1;endFill=0;endSize=12;html=1;rounded=0;" edge="1" parent="1">
          <mxGeometry width="160" relative="1" as="geometry">
            <mxPoint x="315" y="540.0000000000001" as="sourcePoint" />
            <mxPoint x="165" y="540.0000000000001" as="targetPoint" />
          </mxGeometry>
        </mxCell>
        <mxCell id="DczILSoo3hNqs6Ibvgyh-2" value="" style="html=1;points=[];perimeter=orthogonalPerimeter;outlineConnect=0;targetShapes=umlLifeline;portConstraint=eastwest;newEdgeStyle={&quot;edgeStyle&quot;:&quot;elbowEdgeStyle&quot;,&quot;elbow&quot;:&quot;vertical&quot;,&quot;curved&quot;:0,&quot;rounded&quot;:0};container=0;movable=1;resizable=1;rotatable=1;deletable=1;editable=1;locked=0;connectable=1;" vertex="1" parent="1">
          <mxGeometry x="155" y="420" width="10" height="80" as="geometry" />
        </mxCell>
        <mxCell id="JsCXcBClQKsGDNC-CMQg-2" value="" style="html=1;points=[];perimeter=orthogonalPerimeter;outlineConnect=0;targetShapes=umlLifeline;portConstraint=eastwest;newEdgeStyle={&quot;edgeStyle&quot;:&quot;elbowEdgeStyle&quot;,&quot;elbow&quot;:&quot;vertical&quot;,&quot;curved&quot;:0,&quot;rounded&quot;:0};container=0;movable=1;resizable=1;rotatable=1;deletable=1;editable=1;locked=0;connectable=1;" vertex="1" parent="1">
          <mxGeometry x="155" y="540" width="10" height="40" as="geometry" />
        </mxCell>
        <mxCell id="JsCXcBClQKsGDNC-CMQg-5" value="" style="html=1;points=[];perimeter=orthogonalPerimeter;outlineConnect=0;targetShapes=umlLifeline;portConstraint=eastwest;newEdgeStyle={&quot;edgeStyle&quot;:&quot;elbowEdgeStyle&quot;,&quot;elbow&quot;:&quot;vertical&quot;,&quot;curved&quot;:0,&quot;rounded&quot;:0};container=0;movable=1;resizable=1;rotatable=1;deletable=1;editable=1;locked=0;connectable=1;" vertex="1" parent="1">
          <mxGeometry x="155" y="620" width="10" height="40" as="geometry" />
        </mxCell>
        <mxCell id="JsCXcBClQKsGDNC-CMQg-6" value="" style="html=1;points=[];perimeter=orthogonalPerimeter;outlineConnect=0;targetShapes=umlLifeline;portConstraint=eastwest;newEdgeStyle={&quot;edgeStyle&quot;:&quot;elbowEdgeStyle&quot;,&quot;elbow&quot;:&quot;vertical&quot;,&quot;curved&quot;:0,&quot;rounded&quot;:0};container=0;movable=1;resizable=1;rotatable=1;deletable=1;editable=1;locked=0;connectable=1;" vertex="1" parent="1">
          <mxGeometry x="155" y="700" width="10" height="60" as="geometry" />
        </mxCell>
        <mxCell id="eZ2V_rSL-IoAYv9JzIcu-1" style="edgeStyle=orthogonalEdgeStyle;rounded=0;orthogonalLoop=1;jettySize=auto;html=1;elbow=vertical;movable=1;resizable=1;rotatable=1;deletable=1;editable=1;locked=0;connectable=1;" edge="1" parent="1">
          <mxGeometry relative="1" as="geometry">
            <mxPoint x="485" y="520" as="sourcePoint" />
            <mxPoint x="490" y="540" as="targetPoint" />
            <Array as="points">
              <mxPoint x="560" y="520" />
              <mxPoint x="560" y="540" />
            </Array>
          </mxGeometry>
        </mxCell>
      </root>
    </mxGraphModel>
  </diagram>
  <diagram id="-lsvc7B6hNHcZ80oJ0J-" name="UML (Sequence: Verified for UMKM)">
    <mxGraphModel dx="1293" dy="518" grid="1" gridSize="10" guides="1" tooltips="1" connect="1" arrows="1" fold="1" page="1" pageScale="1" pageWidth="850" pageHeight="1100" math="0" shadow="0">
      <root>
        <mxCell id="0" />
        <mxCell id="1" parent="0" />
        <mxCell id="BWEzoZXFJzl6Uit5Z6wS-1" value="system" style="shape=umlLifeline;perimeter=lifelinePerimeter;whiteSpace=wrap;html=1;container=0;dropTarget=0;collapsible=0;recursiveResize=0;outlineConnect=0;portConstraint=eastwest;newEdgeStyle={&quot;edgeStyle&quot;:&quot;elbowEdgeStyle&quot;,&quot;elbow&quot;:&quot;vertical&quot;,&quot;curved&quot;:0,&quot;rounded&quot;:0};movable=1;resizable=1;rotatable=1;deletable=1;editable=1;locked=0;connectable=1;" vertex="1" parent="1">
          <mxGeometry x="470" y="80" width="100" height="480" as="geometry" />
        </mxCell>
        <mxCell id="BWEzoZXFJzl6Uit5Z6wS-2" value="&lt;div&gt;Verified&lt;br&gt;&lt;/div&gt;" style="shape=umlLifeline;perimeter=lifelinePerimeter;whiteSpace=wrap;html=1;container=0;dropTarget=0;collapsible=0;recursiveResize=0;outlineConnect=0;portConstraint=eastwest;newEdgeStyle={&quot;edgeStyle&quot;:&quot;elbowEdgeStyle&quot;,&quot;elbow&quot;:&quot;vertical&quot;,&quot;curved&quot;:0,&quot;rounded&quot;:0};movable=1;resizable=1;rotatable=1;deletable=1;editable=1;locked=0;connectable=1;" vertex="1" parent="1">
          <mxGeometry x="310" y="80" width="100" height="480" as="geometry" />
        </mxCell>
        <mxCell id="BWEzoZXFJzl6Uit5Z6wS-3" value="database" style="shape=umlLifeline;perimeter=lifelinePerimeter;whiteSpace=wrap;html=1;container=0;dropTarget=0;collapsible=0;recursiveResize=0;outlineConnect=0;portConstraint=eastwest;newEdgeStyle={&quot;edgeStyle&quot;:&quot;elbowEdgeStyle&quot;,&quot;elbow&quot;:&quot;vertical&quot;,&quot;curved&quot;:0,&quot;rounded&quot;:0};movable=1;resizable=1;rotatable=1;deletable=1;editable=1;locked=0;connectable=1;" vertex="1" parent="1">
          <mxGeometry x="630" y="80" width="100" height="480" as="geometry" />
        </mxCell>
        <mxCell id="BWEzoZXFJzl6Uit5Z6wS-4" value="UMKM" style="shape=umlLifeline;perimeter=lifelinePerimeter;whiteSpace=wrap;html=1;container=0;dropTarget=0;collapsible=0;recursiveResize=0;outlineConnect=0;portConstraint=eastwest;newEdgeStyle={&quot;edgeStyle&quot;:&quot;elbowEdgeStyle&quot;,&quot;elbow&quot;:&quot;vertical&quot;,&quot;curved&quot;:0,&quot;rounded&quot;:0};movable=1;resizable=1;rotatable=1;deletable=1;editable=1;locked=0;connectable=1;" vertex="1" parent="1">
          <mxGeometry x="150" y="80" width="100" height="480" as="geometry" />
        </mxCell>
        <mxCell id="BWEzoZXFJzl6Uit5Z6wS-5" value="" style="endArrow=classic;html=1;rounded=0;movable=1;resizable=1;rotatable=1;deletable=1;editable=1;locked=0;connectable=1;" edge="1" parent="1">
          <mxGeometry width="50" height="50" relative="1" as="geometry">
            <mxPoint x="205" y="179.47" as="sourcePoint" />
            <mxPoint x="355" y="179.47" as="targetPoint" />
          </mxGeometry>
        </mxCell>
        <mxCell id="BWEzoZXFJzl6Uit5Z6wS-6" value="asking a verified" style="text;html=1;strokeColor=none;fillColor=none;align=center;verticalAlign=middle;whiteSpace=wrap;rounded=0;movable=1;resizable=1;rotatable=1;deletable=1;editable=1;locked=0;connectable=1;" vertex="1" parent="1">
          <mxGeometry x="220" y="149.47" width="120" height="30" as="geometry" />
        </mxCell>
        <mxCell id="BWEzoZXFJzl6Uit5Z6wS-7" value="" style="html=1;points=[];perimeter=orthogonalPerimeter;outlineConnect=0;targetShapes=umlLifeline;portConstraint=eastwest;newEdgeStyle={&quot;edgeStyle&quot;:&quot;elbowEdgeStyle&quot;,&quot;elbow&quot;:&quot;vertical&quot;,&quot;curved&quot;:0,&quot;rounded&quot;:0};container=0;movable=1;resizable=1;rotatable=1;deletable=1;editable=1;locked=0;connectable=1;" vertex="1" parent="1">
          <mxGeometry x="515" y="170" width="10" height="350" as="geometry" />
        </mxCell>
        <mxCell id="BWEzoZXFJzl6Uit5Z6wS-8" value="" style="html=1;points=[];perimeter=orthogonalPerimeter;outlineConnect=0;targetShapes=umlLifeline;portConstraint=eastwest;newEdgeStyle={&quot;edgeStyle&quot;:&quot;elbowEdgeStyle&quot;,&quot;elbow&quot;:&quot;vertical&quot;,&quot;curved&quot;:0,&quot;rounded&quot;:0};container=0;movable=1;resizable=1;rotatable=1;deletable=1;editable=1;locked=0;connectable=1;" vertex="1" parent="1">
          <mxGeometry x="355" y="180" width="10" height="340" as="geometry" />
        </mxCell>
        <mxCell id="BWEzoZXFJzl6Uit5Z6wS-9" value="" style="html=1;points=[];perimeter=orthogonalPerimeter;outlineConnect=0;targetShapes=umlLifeline;portConstraint=eastwest;newEdgeStyle={&quot;edgeStyle&quot;:&quot;elbowEdgeStyle&quot;,&quot;elbow&quot;:&quot;vertical&quot;,&quot;curved&quot;:0,&quot;rounded&quot;:0};container=0;movable=1;resizable=1;rotatable=1;deletable=1;editable=1;locked=0;connectable=1;" vertex="1" parent="1">
          <mxGeometry x="675" y="170" width="10" height="350" as="geometry" />
        </mxCell>
        <mxCell id="BWEzoZXFJzl6Uit5Z6wS-10" value="request the verified" style="text;html=1;strokeColor=none;fillColor=none;align=center;verticalAlign=middle;whiteSpace=wrap;rounded=0;movable=1;resizable=1;rotatable=1;deletable=1;editable=1;locked=0;connectable=1;" vertex="1" parent="1">
          <mxGeometry x="380" y="170" width="120" height="30" as="geometry" />
        </mxCell>
        <mxCell id="BWEzoZXFJzl6Uit5Z6wS-11" value="" style="endArrow=classic;html=1;rounded=0;movable=1;resizable=1;rotatable=1;deletable=1;editable=1;locked=0;connectable=1;" edge="1" parent="1">
          <mxGeometry width="50" height="50" relative="1" as="geometry">
            <mxPoint x="365" y="200" as="sourcePoint" />
            <mxPoint x="515" y="200" as="targetPoint" />
          </mxGeometry>
        </mxCell>
        <mxCell id="BWEzoZXFJzl6Uit5Z6wS-12" value="" style="endArrow=block;dashed=1;endFill=0;endSize=12;html=1;rounded=0;" edge="1" parent="1" source="BWEzoZXFJzl6Uit5Z6wS-20" target="BWEzoZXFJzl6Uit5Z6wS-23">
          <mxGeometry width="160" relative="1" as="geometry">
            <mxPoint x="515" y="320.0000000000001" as="sourcePoint" />
            <mxPoint x="365" y="320.0000000000001" as="targetPoint" />
          </mxGeometry>
        </mxCell>
        <mxCell id="BWEzoZXFJzl6Uit5Z6wS-13" value="&lt;div&gt;request rejected&lt;/div&gt;" style="text;html=1;strokeColor=none;fillColor=none;align=center;verticalAlign=middle;whiteSpace=wrap;rounded=0;movable=1;resizable=1;rotatable=1;deletable=1;editable=1;locked=0;connectable=1;" vertex="1" parent="1">
          <mxGeometry x="380" y="290" width="120" height="30" as="geometry" />
        </mxCell>
        <mxCell id="BWEzoZXFJzl6Uit5Z6wS-14" value="" style="endArrow=block;dashed=1;endFill=0;endSize=12;html=1;rounded=0;" edge="1" parent="1">
          <mxGeometry width="160" relative="1" as="geometry">
            <mxPoint x="360" y="359.65000000000003" as="sourcePoint" />
            <mxPoint x="205" y="359.65000000000003" as="targetPoint" />
          </mxGeometry>
        </mxCell>
        <mxCell id="BWEzoZXFJzl6Uit5Z6wS-15" value="&lt;div&gt;request rejected&lt;/div&gt;" style="text;html=1;strokeColor=none;fillColor=none;align=center;verticalAlign=middle;whiteSpace=wrap;rounded=0;movable=1;resizable=1;rotatable=1;deletable=1;editable=1;locked=0;connectable=1;" vertex="1" parent="1">
          <mxGeometry x="220" y="330" width="120" height="30" as="geometry" />
        </mxCell>
        <mxCell id="BWEzoZXFJzl6Uit5Z6wS-16" value="storing request verified" style="text;html=1;strokeColor=none;fillColor=none;align=center;verticalAlign=middle;whiteSpace=wrap;rounded=0;movable=1;resizable=1;rotatable=1;deletable=1;editable=1;locked=0;connectable=1;" vertex="1" parent="1">
          <mxGeometry x="540" y="190" width="120" height="30" as="geometry" />
        </mxCell>
        <mxCell id="BWEzoZXFJzl6Uit5Z6wS-17" value="" style="endArrow=classic;html=1;rounded=0;movable=1;resizable=1;rotatable=1;deletable=1;editable=1;locked=0;connectable=1;" edge="1" parent="1">
          <mxGeometry width="50" height="50" relative="1" as="geometry">
            <mxPoint x="525" y="220" as="sourcePoint" />
            <mxPoint x="675" y="220" as="targetPoint" />
          </mxGeometry>
        </mxCell>
        <mxCell id="BWEzoZXFJzl6Uit5Z6wS-18" value="&lt;div&gt;company check the request&lt;br&gt;&lt;/div&gt;" style="text;html=1;strokeColor=none;fillColor=none;align=center;verticalAlign=middle;whiteSpace=wrap;rounded=0;movable=1;resizable=1;rotatable=1;deletable=1;editable=1;locked=0;connectable=1;" vertex="1" parent="1">
          <mxGeometry x="540" y="250" width="120" height="30" as="geometry" />
        </mxCell>
        <mxCell id="BWEzoZXFJzl6Uit5Z6wS-19" value="" style="endArrow=block;dashed=1;endFill=0;endSize=12;html=1;rounded=0;" edge="1" parent="1" target="BWEzoZXFJzl6Uit5Z6wS-20">
          <mxGeometry width="160" relative="1" as="geometry">
            <mxPoint x="675" y="280.26" as="sourcePoint" />
            <mxPoint x="525" y="280.0000000000001" as="targetPoint" />
          </mxGeometry>
        </mxCell>
        <mxCell id="BWEzoZXFJzl6Uit5Z6wS-20" value="" style="html=1;points=[];perimeter=orthogonalPerimeter;outlineConnect=0;targetShapes=umlLifeline;portConstraint=eastwest;newEdgeStyle={&quot;edgeStyle&quot;:&quot;elbowEdgeStyle&quot;,&quot;elbow&quot;:&quot;vertical&quot;,&quot;curved&quot;:0,&quot;rounded&quot;:0};container=0;movable=1;resizable=1;rotatable=1;deletable=1;editable=1;locked=0;connectable=1;" vertex="1" parent="1">
          <mxGeometry x="520" y="280" width="10" height="40" as="geometry" />
        </mxCell>
        <mxCell id="BWEzoZXFJzl6Uit5Z6wS-21" value="storing verified" style="text;html=1;strokeColor=none;fillColor=none;align=center;verticalAlign=middle;whiteSpace=wrap;rounded=0;movable=1;resizable=1;rotatable=1;deletable=1;editable=1;locked=0;connectable=1;" vertex="1" parent="1">
          <mxGeometry x="540" y="310.3" width="120" height="30" as="geometry" />
        </mxCell>
        <mxCell id="BWEzoZXFJzl6Uit5Z6wS-22" value="" style="endArrow=classic;html=1;rounded=0;movable=1;resizable=1;rotatable=1;deletable=1;editable=1;locked=0;connectable=1;" edge="1" parent="1">
          <mxGeometry width="50" height="50" relative="1" as="geometry">
            <mxPoint x="525" y="340.3" as="sourcePoint" />
            <mxPoint x="675" y="340.3" as="targetPoint" />
          </mxGeometry>
        </mxCell>
        <mxCell id="BWEzoZXFJzl6Uit5Z6wS-23" value="" style="html=1;points=[];perimeter=orthogonalPerimeter;outlineConnect=0;targetShapes=umlLifeline;portConstraint=eastwest;newEdgeStyle={&quot;edgeStyle&quot;:&quot;elbowEdgeStyle&quot;,&quot;elbow&quot;:&quot;vertical&quot;,&quot;curved&quot;:0,&quot;rounded&quot;:0};container=0;movable=1;resizable=1;rotatable=1;deletable=1;editable=1;locked=0;connectable=1;" vertex="1" parent="1">
          <mxGeometry x="360" y="320" width="10" height="40" as="geometry" />
        </mxCell>
        <mxCell id="BWEzoZXFJzl6Uit5Z6wS-24" value="&lt;div&gt;displaying the verified&lt;/div&gt;" style="text;html=1;strokeColor=none;fillColor=none;align=center;verticalAlign=middle;whiteSpace=wrap;rounded=0;movable=1;resizable=1;rotatable=1;deletable=1;editable=1;locked=0;connectable=1;" vertex="1" parent="1">
          <mxGeometry x="540" y="370" width="120" height="30" as="geometry" />
        </mxCell>
        <mxCell id="BWEzoZXFJzl6Uit5Z6wS-25" value="" style="endArrow=block;dashed=1;endFill=0;endSize=12;html=1;rounded=0;" edge="1" parent="1" source="BWEzoZXFJzl6Uit5Z6wS-9">
          <mxGeometry width="160" relative="1" as="geometry">
            <mxPoint x="670" y="400.26" as="sourcePoint" />
            <mxPoint x="525" y="400" as="targetPoint" />
          </mxGeometry>
        </mxCell>
        <mxCell id="BWEzoZXFJzl6Uit5Z6wS-26" value="&lt;div&gt;displaying the verified&lt;/div&gt;" style="text;html=1;strokeColor=none;fillColor=none;align=center;verticalAlign=middle;whiteSpace=wrap;rounded=0;movable=1;resizable=1;rotatable=1;deletable=1;editable=1;locked=0;connectable=1;" vertex="1" parent="1">
          <mxGeometry x="380" y="390" width="120" height="30" as="geometry" />
        </mxCell>
        <mxCell id="BWEzoZXFJzl6Uit5Z6wS-27" value="" style="endArrow=block;dashed=1;endFill=0;endSize=12;html=1;rounded=0;" edge="1" parent="1">
          <mxGeometry width="160" relative="1" as="geometry">
            <mxPoint x="515" y="420" as="sourcePoint" />
            <mxPoint x="365" y="420" as="targetPoint" />
          </mxGeometry>
        </mxCell>
        <mxCell id="BWEzoZXFJzl6Uit5Z6wS-28" value="&lt;div&gt;displaying the verified&lt;/div&gt;" style="text;html=1;strokeColor=none;fillColor=none;align=center;verticalAlign=middle;whiteSpace=wrap;rounded=0;movable=1;resizable=1;rotatable=1;deletable=1;editable=1;locked=0;connectable=1;" vertex="1" parent="1">
          <mxGeometry x="220" y="410" width="120" height="30" as="geometry" />
        </mxCell>
        <mxCell id="BWEzoZXFJzl6Uit5Z6wS-29" value="" style="endArrow=block;dashed=1;endFill=0;endSize=12;html=1;rounded=0;" edge="1" parent="1">
          <mxGeometry width="160" relative="1" as="geometry">
            <mxPoint x="355" y="440" as="sourcePoint" />
            <mxPoint x="205" y="440" as="targetPoint" />
          </mxGeometry>
        </mxCell>
        <mxCell id="BWEzoZXFJzl6Uit5Z6wS-30" value="" style="html=1;points=[];perimeter=orthogonalPerimeter;outlineConnect=0;targetShapes=umlLifeline;portConstraint=eastwest;newEdgeStyle={&quot;edgeStyle&quot;:&quot;elbowEdgeStyle&quot;,&quot;elbow&quot;:&quot;vertical&quot;,&quot;curved&quot;:0,&quot;rounded&quot;:0};container=0;movable=1;resizable=1;rotatable=1;deletable=1;editable=1;locked=0;connectable=1;" vertex="1" parent="1">
          <mxGeometry x="195" y="180" width="10" height="80" as="geometry" />
        </mxCell>
        <mxCell id="BWEzoZXFJzl6Uit5Z6wS-31" value="" style="html=1;points=[];perimeter=orthogonalPerimeter;outlineConnect=0;targetShapes=umlLifeline;portConstraint=eastwest;newEdgeStyle={&quot;edgeStyle&quot;:&quot;elbowEdgeStyle&quot;,&quot;elbow&quot;:&quot;vertical&quot;,&quot;curved&quot;:0,&quot;rounded&quot;:0};container=0;movable=1;resizable=1;rotatable=1;deletable=1;editable=1;locked=0;connectable=1;" vertex="1" parent="1">
          <mxGeometry x="195" y="360" width="10" height="40" as="geometry" />
        </mxCell>
        <mxCell id="BWEzoZXFJzl6Uit5Z6wS-32" value="" style="html=1;points=[];perimeter=orthogonalPerimeter;outlineConnect=0;targetShapes=umlLifeline;portConstraint=eastwest;newEdgeStyle={&quot;edgeStyle&quot;:&quot;elbowEdgeStyle&quot;,&quot;elbow&quot;:&quot;vertical&quot;,&quot;curved&quot;:0,&quot;rounded&quot;:0};container=0;movable=1;resizable=1;rotatable=1;deletable=1;editable=1;locked=0;connectable=1;" vertex="1" parent="1">
          <mxGeometry x="195" y="440" width="10" height="80" as="geometry" />
        </mxCell>
      </root>
    </mxGraphModel>
  </diagram>
  <diagram id="SzlS13MM0Vn6Shg6Nc8e" name="UML (Sequence: Searching a Project for Mahasiswa)">
    <mxGraphModel dx="1293" dy="518" grid="1" gridSize="10" guides="1" tooltips="1" connect="1" arrows="1" fold="1" page="1" pageScale="1" pageWidth="850" pageHeight="1100" math="0" shadow="0">
      <root>
        <mxCell id="0" />
        <mxCell id="1" parent="0" />
        <mxCell id="FR1u1kDNAYwA_gS58L46-1" value="system" style="shape=umlLifeline;perimeter=lifelinePerimeter;whiteSpace=wrap;html=1;container=0;dropTarget=0;collapsible=0;recursiveResize=0;outlineConnect=0;portConstraint=eastwest;newEdgeStyle={&quot;edgeStyle&quot;:&quot;elbowEdgeStyle&quot;,&quot;elbow&quot;:&quot;vertical&quot;,&quot;curved&quot;:0,&quot;rounded&quot;:0};movable=1;resizable=1;rotatable=1;deletable=1;editable=1;locked=0;connectable=1;" vertex="1" parent="1">
          <mxGeometry x="470" y="80" width="100" height="520" as="geometry" />
        </mxCell>
        <mxCell id="FR1u1kDNAYwA_gS58L46-2" value="&lt;div&gt;join for sayembara&lt;br&gt;&lt;/div&gt;" style="shape=umlLifeline;perimeter=lifelinePerimeter;whiteSpace=wrap;html=1;container=0;dropTarget=0;collapsible=0;recursiveResize=0;outlineConnect=0;portConstraint=eastwest;newEdgeStyle={&quot;edgeStyle&quot;:&quot;elbowEdgeStyle&quot;,&quot;elbow&quot;:&quot;vertical&quot;,&quot;curved&quot;:0,&quot;rounded&quot;:0};movable=1;resizable=1;rotatable=1;deletable=1;editable=1;locked=0;connectable=1;" vertex="1" parent="1">
          <mxGeometry x="310" y="80" width="100" height="520" as="geometry" />
        </mxCell>
        <mxCell id="FR1u1kDNAYwA_gS58L46-3" value="database" style="shape=umlLifeline;perimeter=lifelinePerimeter;whiteSpace=wrap;html=1;container=0;dropTarget=0;collapsible=0;recursiveResize=0;outlineConnect=0;portConstraint=eastwest;newEdgeStyle={&quot;edgeStyle&quot;:&quot;elbowEdgeStyle&quot;,&quot;elbow&quot;:&quot;vertical&quot;,&quot;curved&quot;:0,&quot;rounded&quot;:0};movable=1;resizable=1;rotatable=1;deletable=1;editable=1;locked=0;connectable=1;" vertex="1" parent="1">
          <mxGeometry x="630" y="80" width="100" height="520" as="geometry" />
        </mxCell>
        <mxCell id="FR1u1kDNAYwA_gS58L46-4" value="displaying the list of jobs" style="text;html=1;strokeColor=none;fillColor=none;align=center;verticalAlign=middle;whiteSpace=wrap;rounded=0;movable=1;resizable=1;rotatable=1;deletable=1;editable=1;locked=0;connectable=1;" vertex="1" parent="1">
          <mxGeometry x="220" y="150" width="120" height="30" as="geometry" />
        </mxCell>
        <mxCell id="FR1u1kDNAYwA_gS58L46-5" value="Mahasiswa" style="shape=umlLifeline;perimeter=lifelinePerimeter;whiteSpace=wrap;html=1;container=0;dropTarget=0;collapsible=0;recursiveResize=0;outlineConnect=0;portConstraint=eastwest;newEdgeStyle={&quot;edgeStyle&quot;:&quot;elbowEdgeStyle&quot;,&quot;elbow&quot;:&quot;vertical&quot;,&quot;curved&quot;:0,&quot;rounded&quot;:0};movable=1;resizable=1;rotatable=1;deletable=1;editable=1;locked=0;connectable=1;" vertex="1" parent="1">
          <mxGeometry x="150" y="80" width="100" height="520" as="geometry" />
        </mxCell>
        <mxCell id="FR1u1kDNAYwA_gS58L46-7" value="" style="endArrow=classic;html=1;rounded=0;movable=1;resizable=1;rotatable=1;deletable=1;editable=1;locked=0;connectable=1;" edge="1" parent="1">
          <mxGeometry width="50" height="50" relative="1" as="geometry">
            <mxPoint x="205" y="239.46" as="sourcePoint" />
            <mxPoint x="355" y="239.46" as="targetPoint" />
          </mxGeometry>
        </mxCell>
        <mxCell id="FR1u1kDNAYwA_gS58L46-8" value="Searching a job" style="text;html=1;strokeColor=none;fillColor=none;align=center;verticalAlign=middle;whiteSpace=wrap;rounded=0;movable=1;resizable=1;rotatable=1;deletable=1;editable=1;locked=0;connectable=1;" vertex="1" parent="1">
          <mxGeometry x="220" y="209.46" width="120" height="30" as="geometry" />
        </mxCell>
        <mxCell id="FR1u1kDNAYwA_gS58L46-11" value="" style="html=1;points=[];perimeter=orthogonalPerimeter;outlineConnect=0;targetShapes=umlLifeline;portConstraint=eastwest;newEdgeStyle={&quot;edgeStyle&quot;:&quot;elbowEdgeStyle&quot;,&quot;elbow&quot;:&quot;vertical&quot;,&quot;curved&quot;:0,&quot;rounded&quot;:0};container=0;movable=1;resizable=1;rotatable=1;deletable=1;editable=1;locked=0;connectable=1;" vertex="1" parent="1">
          <mxGeometry x="515" y="170" width="10" height="390" as="geometry" />
        </mxCell>
        <mxCell id="FR1u1kDNAYwA_gS58L46-12" value="" style="html=1;points=[];perimeter=orthogonalPerimeter;outlineConnect=0;targetShapes=umlLifeline;portConstraint=eastwest;newEdgeStyle={&quot;edgeStyle&quot;:&quot;elbowEdgeStyle&quot;,&quot;elbow&quot;:&quot;vertical&quot;,&quot;curved&quot;:0,&quot;rounded&quot;:0};container=0;movable=1;resizable=1;rotatable=1;deletable=1;editable=1;locked=0;connectable=1;" vertex="1" parent="1">
          <mxGeometry x="355" y="180" width="10" height="380" as="geometry" />
        </mxCell>
        <mxCell id="FR1u1kDNAYwA_gS58L46-15" value="" style="html=1;points=[];perimeter=orthogonalPerimeter;outlineConnect=0;targetShapes=umlLifeline;portConstraint=eastwest;newEdgeStyle={&quot;edgeStyle&quot;:&quot;elbowEdgeStyle&quot;,&quot;elbow&quot;:&quot;vertical&quot;,&quot;curved&quot;:0,&quot;rounded&quot;:0};container=0;movable=1;resizable=1;rotatable=1;deletable=1;editable=1;locked=0;connectable=1;" vertex="1" parent="1">
          <mxGeometry x="675" y="170" width="10" height="390" as="geometry" />
        </mxCell>
        <mxCell id="FR1u1kDNAYwA_gS58L46-20" value="" style="endArrow=block;dashed=1;endFill=0;endSize=12;html=1;rounded=0;" edge="1" parent="1">
          <mxGeometry width="160" relative="1" as="geometry">
            <mxPoint x="355" y="180.0000000000001" as="sourcePoint" />
            <mxPoint x="205" y="180.0000000000001" as="targetPoint" />
          </mxGeometry>
        </mxCell>
        <mxCell id="ChhsYXMQq7mIkGNpfu8H-1" value="mix and match" style="text;html=1;strokeColor=none;fillColor=none;align=center;verticalAlign=middle;whiteSpace=wrap;rounded=0;movable=1;resizable=1;rotatable=1;deletable=1;editable=1;locked=0;connectable=1;" vertex="1" parent="1">
          <mxGeometry x="220" y="270" width="120" height="30" as="geometry" />
        </mxCell>
        <mxCell id="ChhsYXMQq7mIkGNpfu8H-2" value="" style="endArrow=classic;html=1;rounded=0;movable=1;resizable=1;rotatable=1;deletable=1;editable=1;locked=0;connectable=1;" edge="1" parent="1">
          <mxGeometry width="50" height="50" relative="1" as="geometry">
            <mxPoint x="205" y="300" as="sourcePoint" />
            <mxPoint x="355" y="300" as="targetPoint" />
          </mxGeometry>
        </mxCell>
        <mxCell id="ChhsYXMQq7mIkGNpfu8H-4" value="uploading the result" style="text;html=1;strokeColor=none;fillColor=none;align=center;verticalAlign=middle;whiteSpace=wrap;rounded=0;movable=1;resizable=1;rotatable=1;deletable=1;editable=1;locked=0;connectable=1;" vertex="1" parent="1">
          <mxGeometry x="380" y="350" width="120" height="30" as="geometry" />
        </mxCell>
        <mxCell id="ChhsYXMQq7mIkGNpfu8H-5" value="" style="endArrow=classic;html=1;rounded=0;movable=1;resizable=1;rotatable=1;deletable=1;editable=1;locked=0;connectable=1;" edge="1" parent="1">
          <mxGeometry width="50" height="50" relative="1" as="geometry">
            <mxPoint x="365" y="380" as="sourcePoint" />
            <mxPoint x="515" y="380" as="targetPoint" />
          </mxGeometry>
        </mxCell>
        <mxCell id="rqIIlAbHJ4AylicAQWuQ-1" value="displaying the detail job" style="text;html=1;strokeColor=none;fillColor=none;align=center;verticalAlign=middle;whiteSpace=wrap;rounded=0;movable=1;resizable=1;rotatable=1;deletable=1;editable=1;locked=0;connectable=1;" vertex="1" parent="1">
          <mxGeometry x="220" y="330" width="120" height="30" as="geometry" />
        </mxCell>
        <mxCell id="rqIIlAbHJ4AylicAQWuQ-2" value="" style="endArrow=block;dashed=1;endFill=0;endSize=12;html=1;rounded=0;" edge="1" parent="1">
          <mxGeometry width="160" relative="1" as="geometry">
            <mxPoint x="355" y="360.0000000000001" as="sourcePoint" />
            <mxPoint x="205" y="360.0000000000001" as="targetPoint" />
          </mxGeometry>
        </mxCell>
        <mxCell id="rqIIlAbHJ4AylicAQWuQ-3" value="storing the result to database" style="text;html=1;strokeColor=none;fillColor=none;align=center;verticalAlign=middle;whiteSpace=wrap;rounded=0;movable=1;resizable=1;rotatable=1;deletable=1;editable=1;locked=0;connectable=1;" vertex="1" parent="1">
          <mxGeometry x="540" y="370" width="120" height="30" as="geometry" />
        </mxCell>
        <mxCell id="rqIIlAbHJ4AylicAQWuQ-4" value="" style="endArrow=classic;html=1;rounded=0;movable=1;resizable=1;rotatable=1;deletable=1;editable=1;locked=0;connectable=1;" edge="1" parent="1">
          <mxGeometry width="50" height="50" relative="1" as="geometry">
            <mxPoint x="525" y="400" as="sourcePoint" />
            <mxPoint x="675" y="400" as="targetPoint" />
          </mxGeometry>
        </mxCell>
        <mxCell id="rqIIlAbHJ4AylicAQWuQ-7" value="displaying the result page" style="text;html=1;strokeColor=none;fillColor=none;align=center;verticalAlign=middle;whiteSpace=wrap;rounded=0;movable=1;resizable=1;rotatable=1;deletable=1;editable=1;locked=0;connectable=1;" vertex="1" parent="1">
          <mxGeometry x="540" y="430" width="120" height="30" as="geometry" />
        </mxCell>
        <mxCell id="rqIIlAbHJ4AylicAQWuQ-8" value="" style="endArrow=block;dashed=1;endFill=0;endSize=12;html=1;rounded=0;" edge="1" parent="1">
          <mxGeometry width="160" relative="1" as="geometry">
            <mxPoint x="675" y="460.0000000000001" as="sourcePoint" />
            <mxPoint x="525" y="460.0000000000001" as="targetPoint" />
          </mxGeometry>
        </mxCell>
        <mxCell id="z_xxArnH8QdqFrqGZCU5-1" value="displaying the result page" style="text;html=1;strokeColor=none;fillColor=none;align=center;verticalAlign=middle;whiteSpace=wrap;rounded=0;movable=1;resizable=1;rotatable=1;deletable=1;editable=1;locked=0;connectable=1;" vertex="1" parent="1">
          <mxGeometry x="380" y="450" width="120" height="30" as="geometry" />
        </mxCell>
        <mxCell id="z_xxArnH8QdqFrqGZCU5-2" value="" style="endArrow=block;dashed=1;endFill=0;endSize=12;html=1;rounded=0;" edge="1" parent="1">
          <mxGeometry width="160" relative="1" as="geometry">
            <mxPoint x="515" y="480.0000000000001" as="sourcePoint" />
            <mxPoint x="365" y="480.0000000000001" as="targetPoint" />
          </mxGeometry>
        </mxCell>
        <mxCell id="z_xxArnH8QdqFrqGZCU5-4" value="displaying the result page" style="text;html=1;strokeColor=none;fillColor=none;align=center;verticalAlign=middle;whiteSpace=wrap;rounded=0;movable=1;resizable=1;rotatable=1;deletable=1;editable=1;locked=0;connectable=1;" vertex="1" parent="1">
          <mxGeometry x="220" y="470" width="120" height="30" as="geometry" />
        </mxCell>
        <mxCell id="z_xxArnH8QdqFrqGZCU5-5" value="" style="endArrow=block;dashed=1;endFill=0;endSize=12;html=1;rounded=0;" edge="1" parent="1">
          <mxGeometry width="160" relative="1" as="geometry">
            <mxPoint x="355" y="500.0000000000001" as="sourcePoint" />
            <mxPoint x="205" y="500.0000000000001" as="targetPoint" />
          </mxGeometry>
        </mxCell>
        <mxCell id="FR1u1kDNAYwA_gS58L46-6" value="" style="html=1;points=[];perimeter=orthogonalPerimeter;outlineConnect=0;targetShapes=umlLifeline;portConstraint=eastwest;newEdgeStyle={&quot;edgeStyle&quot;:&quot;elbowEdgeStyle&quot;,&quot;elbow&quot;:&quot;vertical&quot;,&quot;curved&quot;:0,&quot;rounded&quot;:0};container=0;movable=1;resizable=1;rotatable=1;deletable=1;editable=1;locked=0;connectable=1;" vertex="1" parent="1">
          <mxGeometry x="195" y="180" width="10" height="140" as="geometry" />
        </mxCell>
        <mxCell id="hcTD9t86G_aDmlKE-b6m-1" value="" style="html=1;points=[];perimeter=orthogonalPerimeter;outlineConnect=0;targetShapes=umlLifeline;portConstraint=eastwest;newEdgeStyle={&quot;edgeStyle&quot;:&quot;elbowEdgeStyle&quot;,&quot;elbow&quot;:&quot;vertical&quot;,&quot;curved&quot;:0,&quot;rounded&quot;:0};container=0;movable=1;resizable=1;rotatable=1;deletable=1;editable=1;locked=0;connectable=1;" vertex="1" parent="1">
          <mxGeometry x="195" y="360" width="10" height="40" as="geometry" />
        </mxCell>
        <mxCell id="hcTD9t86G_aDmlKE-b6m-2" value="" style="html=1;points=[];perimeter=orthogonalPerimeter;outlineConnect=0;targetShapes=umlLifeline;portConstraint=eastwest;newEdgeStyle={&quot;edgeStyle&quot;:&quot;elbowEdgeStyle&quot;,&quot;elbow&quot;:&quot;vertical&quot;,&quot;curved&quot;:0,&quot;rounded&quot;:0};container=0;movable=1;resizable=1;rotatable=1;deletable=1;editable=1;locked=0;connectable=1;" vertex="1" parent="1">
          <mxGeometry x="195" y="500" width="10" height="60" as="geometry" />
        </mxCell>
      </root>
    </mxGraphModel>
  </diagram>
  <diagram id="zBVdFD6MaKBcilHou-f2" name="UML (Sequence: Badge Expert for Mahasiswa)">
    <mxGraphModel dx="1379" dy="552" grid="1" gridSize="10" guides="1" tooltips="1" connect="1" arrows="1" fold="1" page="1" pageScale="1" pageWidth="850" pageHeight="1100" math="0" shadow="0">
      <root>
        <mxCell id="0" />
        <mxCell id="1" parent="0" />
        <mxCell id="qQp0_Dav2U8Ifcp5pkcD-1" value="system" style="shape=umlLifeline;perimeter=lifelinePerimeter;whiteSpace=wrap;html=1;container=0;dropTarget=0;collapsible=0;recursiveResize=0;outlineConnect=0;portConstraint=eastwest;newEdgeStyle={&quot;edgeStyle&quot;:&quot;elbowEdgeStyle&quot;,&quot;elbow&quot;:&quot;vertical&quot;,&quot;curved&quot;:0,&quot;rounded&quot;:0};movable=1;resizable=1;rotatable=1;deletable=1;editable=1;locked=0;connectable=1;" vertex="1" parent="1">
          <mxGeometry x="470" y="80" width="100" height="480" as="geometry" />
        </mxCell>
        <mxCell id="qQp0_Dav2U8Ifcp5pkcD-2" value="&lt;div&gt;Badge Expert&lt;br&gt;&lt;/div&gt;" style="shape=umlLifeline;perimeter=lifelinePerimeter;whiteSpace=wrap;html=1;container=0;dropTarget=0;collapsible=0;recursiveResize=0;outlineConnect=0;portConstraint=eastwest;newEdgeStyle={&quot;edgeStyle&quot;:&quot;elbowEdgeStyle&quot;,&quot;elbow&quot;:&quot;vertical&quot;,&quot;curved&quot;:0,&quot;rounded&quot;:0};movable=1;resizable=1;rotatable=1;deletable=1;editable=1;locked=0;connectable=1;" vertex="1" parent="1">
          <mxGeometry x="310" y="80" width="100" height="480" as="geometry" />
        </mxCell>
        <mxCell id="qQp0_Dav2U8Ifcp5pkcD-3" value="database" style="shape=umlLifeline;perimeter=lifelinePerimeter;whiteSpace=wrap;html=1;container=0;dropTarget=0;collapsible=0;recursiveResize=0;outlineConnect=0;portConstraint=eastwest;newEdgeStyle={&quot;edgeStyle&quot;:&quot;elbowEdgeStyle&quot;,&quot;elbow&quot;:&quot;vertical&quot;,&quot;curved&quot;:0,&quot;rounded&quot;:0};movable=1;resizable=1;rotatable=1;deletable=1;editable=1;locked=0;connectable=1;" vertex="1" parent="1">
          <mxGeometry x="630" y="80" width="100" height="480" as="geometry" />
        </mxCell>
        <mxCell id="qQp0_Dav2U8Ifcp5pkcD-4" value="Mahasiswa" style="shape=umlLifeline;perimeter=lifelinePerimeter;whiteSpace=wrap;html=1;container=0;dropTarget=0;collapsible=0;recursiveResize=0;outlineConnect=0;portConstraint=eastwest;newEdgeStyle={&quot;edgeStyle&quot;:&quot;elbowEdgeStyle&quot;,&quot;elbow&quot;:&quot;vertical&quot;,&quot;curved&quot;:0,&quot;rounded&quot;:0};movable=1;resizable=1;rotatable=1;deletable=1;editable=1;locked=0;connectable=1;" vertex="1" parent="1">
          <mxGeometry x="150" y="80" width="100" height="480" as="geometry" />
        </mxCell>
        <mxCell id="qQp0_Dav2U8Ifcp5pkcD-6" value="" style="endArrow=classic;html=1;rounded=0;movable=1;resizable=1;rotatable=1;deletable=1;editable=1;locked=0;connectable=1;" edge="1" parent="1">
          <mxGeometry width="50" height="50" relative="1" as="geometry">
            <mxPoint x="205" y="179.47" as="sourcePoint" />
            <mxPoint x="355" y="179.47" as="targetPoint" />
          </mxGeometry>
        </mxCell>
        <mxCell id="qQp0_Dav2U8Ifcp5pkcD-7" value="asking a expert badge" style="text;html=1;strokeColor=none;fillColor=none;align=center;verticalAlign=middle;whiteSpace=wrap;rounded=0;movable=1;resizable=1;rotatable=1;deletable=1;editable=1;locked=0;connectable=1;" vertex="1" parent="1">
          <mxGeometry x="220" y="149.47" width="120" height="30" as="geometry" />
        </mxCell>
        <mxCell id="qQp0_Dav2U8Ifcp5pkcD-8" value="" style="html=1;points=[];perimeter=orthogonalPerimeter;outlineConnect=0;targetShapes=umlLifeline;portConstraint=eastwest;newEdgeStyle={&quot;edgeStyle&quot;:&quot;elbowEdgeStyle&quot;,&quot;elbow&quot;:&quot;vertical&quot;,&quot;curved&quot;:0,&quot;rounded&quot;:0};container=0;movable=1;resizable=1;rotatable=1;deletable=1;editable=1;locked=0;connectable=1;" vertex="1" parent="1">
          <mxGeometry x="515" y="170" width="10" height="350" as="geometry" />
        </mxCell>
        <mxCell id="qQp0_Dav2U8Ifcp5pkcD-9" value="" style="html=1;points=[];perimeter=orthogonalPerimeter;outlineConnect=0;targetShapes=umlLifeline;portConstraint=eastwest;newEdgeStyle={&quot;edgeStyle&quot;:&quot;elbowEdgeStyle&quot;,&quot;elbow&quot;:&quot;vertical&quot;,&quot;curved&quot;:0,&quot;rounded&quot;:0};container=0;movable=1;resizable=1;rotatable=1;deletable=1;editable=1;locked=0;connectable=1;" vertex="1" parent="1">
          <mxGeometry x="355" y="180" width="10" height="340" as="geometry" />
        </mxCell>
        <mxCell id="qQp0_Dav2U8Ifcp5pkcD-10" value="" style="html=1;points=[];perimeter=orthogonalPerimeter;outlineConnect=0;targetShapes=umlLifeline;portConstraint=eastwest;newEdgeStyle={&quot;edgeStyle&quot;:&quot;elbowEdgeStyle&quot;,&quot;elbow&quot;:&quot;vertical&quot;,&quot;curved&quot;:0,&quot;rounded&quot;:0};container=0;movable=1;resizable=1;rotatable=1;deletable=1;editable=1;locked=0;connectable=1;" vertex="1" parent="1">
          <mxGeometry x="675" y="170" width="10" height="350" as="geometry" />
        </mxCell>
        <mxCell id="qQp0_Dav2U8Ifcp5pkcD-11" value="request the expert badge" style="text;html=1;strokeColor=none;fillColor=none;align=center;verticalAlign=middle;whiteSpace=wrap;rounded=0;movable=1;resizable=1;rotatable=1;deletable=1;editable=1;locked=0;connectable=1;" vertex="1" parent="1">
          <mxGeometry x="380" y="170" width="120" height="30" as="geometry" />
        </mxCell>
        <mxCell id="qQp0_Dav2U8Ifcp5pkcD-12" value="" style="endArrow=classic;html=1;rounded=0;movable=1;resizable=1;rotatable=1;deletable=1;editable=1;locked=0;connectable=1;" edge="1" parent="1">
          <mxGeometry width="50" height="50" relative="1" as="geometry">
            <mxPoint x="365" y="200" as="sourcePoint" />
            <mxPoint x="515" y="200" as="targetPoint" />
          </mxGeometry>
        </mxCell>
        <mxCell id="0wkrptR28kLLC7TfAYa1-1" value="" style="endArrow=block;dashed=1;endFill=0;endSize=12;html=1;rounded=0;" edge="1" parent="1" source="OCfECXJ0GgYk4R6kvINv-2" target="qXTAfqhvOCM_89tiU4Md-2">
          <mxGeometry width="160" relative="1" as="geometry">
            <mxPoint x="515" y="320.0000000000001" as="sourcePoint" />
            <mxPoint x="365" y="320.0000000000001" as="targetPoint" />
          </mxGeometry>
        </mxCell>
        <mxCell id="0wkrptR28kLLC7TfAYa1-2" value="&lt;div&gt;request rejected&lt;/div&gt;" style="text;html=1;strokeColor=none;fillColor=none;align=center;verticalAlign=middle;whiteSpace=wrap;rounded=0;movable=1;resizable=1;rotatable=1;deletable=1;editable=1;locked=0;connectable=1;" vertex="1" parent="1">
          <mxGeometry x="380" y="290" width="120" height="30" as="geometry" />
        </mxCell>
        <mxCell id="czVuo1d5y4jQYRz9I115-1" value="" style="endArrow=block;dashed=1;endFill=0;endSize=12;html=1;rounded=0;" edge="1" parent="1">
          <mxGeometry width="160" relative="1" as="geometry">
            <mxPoint x="360" y="359.65000000000003" as="sourcePoint" />
            <mxPoint x="205" y="359.65000000000003" as="targetPoint" />
          </mxGeometry>
        </mxCell>
        <mxCell id="czVuo1d5y4jQYRz9I115-2" value="&lt;div&gt;request rejected&lt;/div&gt;" style="text;html=1;strokeColor=none;fillColor=none;align=center;verticalAlign=middle;whiteSpace=wrap;rounded=0;movable=1;resizable=1;rotatable=1;deletable=1;editable=1;locked=0;connectable=1;" vertex="1" parent="1">
          <mxGeometry x="220" y="330" width="120" height="30" as="geometry" />
        </mxCell>
        <mxCell id="Aa1VaKfEvVBbv__b_zZp-1" value="storing request badge" style="text;html=1;strokeColor=none;fillColor=none;align=center;verticalAlign=middle;whiteSpace=wrap;rounded=0;movable=1;resizable=1;rotatable=1;deletable=1;editable=1;locked=0;connectable=1;" vertex="1" parent="1">
          <mxGeometry x="540" y="190" width="120" height="30" as="geometry" />
        </mxCell>
        <mxCell id="Aa1VaKfEvVBbv__b_zZp-2" value="" style="endArrow=classic;html=1;rounded=0;movable=1;resizable=1;rotatable=1;deletable=1;editable=1;locked=0;connectable=1;" edge="1" parent="1">
          <mxGeometry width="50" height="50" relative="1" as="geometry">
            <mxPoint x="525" y="220" as="sourcePoint" />
            <mxPoint x="675" y="220" as="targetPoint" />
          </mxGeometry>
        </mxCell>
        <mxCell id="yGSlo6gKkE6v_nlUYlx_-1" value="&lt;div&gt;company check the request&lt;br&gt;&lt;/div&gt;" style="text;html=1;strokeColor=none;fillColor=none;align=center;verticalAlign=middle;whiteSpace=wrap;rounded=0;movable=1;resizable=1;rotatable=1;deletable=1;editable=1;locked=0;connectable=1;" vertex="1" parent="1">
          <mxGeometry x="540" y="250" width="120" height="30" as="geometry" />
        </mxCell>
        <mxCell id="yGSlo6gKkE6v_nlUYlx_-2" value="" style="endArrow=block;dashed=1;endFill=0;endSize=12;html=1;rounded=0;" edge="1" parent="1" target="OCfECXJ0GgYk4R6kvINv-2">
          <mxGeometry width="160" relative="1" as="geometry">
            <mxPoint x="675" y="280.26" as="sourcePoint" />
            <mxPoint x="525" y="280.0000000000001" as="targetPoint" />
          </mxGeometry>
        </mxCell>
        <mxCell id="OCfECXJ0GgYk4R6kvINv-2" value="" style="html=1;points=[];perimeter=orthogonalPerimeter;outlineConnect=0;targetShapes=umlLifeline;portConstraint=eastwest;newEdgeStyle={&quot;edgeStyle&quot;:&quot;elbowEdgeStyle&quot;,&quot;elbow&quot;:&quot;vertical&quot;,&quot;curved&quot;:0,&quot;rounded&quot;:0};container=0;movable=1;resizable=1;rotatable=1;deletable=1;editable=1;locked=0;connectable=1;" vertex="1" parent="1">
          <mxGeometry x="520" y="280" width="10" height="40" as="geometry" />
        </mxCell>
        <mxCell id="OCfECXJ0GgYk4R6kvINv-3" value="storing accepted expert badge" style="text;html=1;strokeColor=none;fillColor=none;align=center;verticalAlign=middle;whiteSpace=wrap;rounded=0;movable=1;resizable=1;rotatable=1;deletable=1;editable=1;locked=0;connectable=1;" vertex="1" parent="1">
          <mxGeometry x="540" y="310.3" width="120" height="30" as="geometry" />
        </mxCell>
        <mxCell id="OCfECXJ0GgYk4R6kvINv-4" value="" style="endArrow=classic;html=1;rounded=0;movable=1;resizable=1;rotatable=1;deletable=1;editable=1;locked=0;connectable=1;" edge="1" parent="1">
          <mxGeometry width="50" height="50" relative="1" as="geometry">
            <mxPoint x="525" y="340.3" as="sourcePoint" />
            <mxPoint x="675" y="340.3" as="targetPoint" />
          </mxGeometry>
        </mxCell>
        <mxCell id="qXTAfqhvOCM_89tiU4Md-2" value="" style="html=1;points=[];perimeter=orthogonalPerimeter;outlineConnect=0;targetShapes=umlLifeline;portConstraint=eastwest;newEdgeStyle={&quot;edgeStyle&quot;:&quot;elbowEdgeStyle&quot;,&quot;elbow&quot;:&quot;vertical&quot;,&quot;curved&quot;:0,&quot;rounded&quot;:0};container=0;movable=1;resizable=1;rotatable=1;deletable=1;editable=1;locked=0;connectable=1;" vertex="1" parent="1">
          <mxGeometry x="360" y="320" width="10" height="40" as="geometry" />
        </mxCell>
        <mxCell id="XuY9KwxSG9W7Sp8b_PJN-1" value="&lt;div&gt;displaying the expert badge&lt;br&gt;&lt;/div&gt;" style="text;html=1;strokeColor=none;fillColor=none;align=center;verticalAlign=middle;whiteSpace=wrap;rounded=0;movable=1;resizable=1;rotatable=1;deletable=1;editable=1;locked=0;connectable=1;" vertex="1" parent="1">
          <mxGeometry x="540" y="370" width="120" height="30" as="geometry" />
        </mxCell>
        <mxCell id="XuY9KwxSG9W7Sp8b_PJN-2" value="" style="endArrow=block;dashed=1;endFill=0;endSize=12;html=1;rounded=0;" edge="1" parent="1" source="qQp0_Dav2U8Ifcp5pkcD-10">
          <mxGeometry width="160" relative="1" as="geometry">
            <mxPoint x="670" y="400.26" as="sourcePoint" />
            <mxPoint x="525" y="400" as="targetPoint" />
          </mxGeometry>
        </mxCell>
        <mxCell id="naxjawQE2bDCA0yBPAnP-1" value="&lt;div&gt;displaying the expert badge&lt;br&gt;&lt;/div&gt;" style="text;html=1;strokeColor=none;fillColor=none;align=center;verticalAlign=middle;whiteSpace=wrap;rounded=0;movable=1;resizable=1;rotatable=1;deletable=1;editable=1;locked=0;connectable=1;" vertex="1" parent="1">
          <mxGeometry x="380" y="390" width="120" height="30" as="geometry" />
        </mxCell>
        <mxCell id="naxjawQE2bDCA0yBPAnP-2" value="" style="endArrow=block;dashed=1;endFill=0;endSize=12;html=1;rounded=0;" edge="1" parent="1">
          <mxGeometry width="160" relative="1" as="geometry">
            <mxPoint x="515" y="420" as="sourcePoint" />
            <mxPoint x="365" y="420" as="targetPoint" />
          </mxGeometry>
        </mxCell>
        <mxCell id="naxjawQE2bDCA0yBPAnP-3" value="&lt;div&gt;displaying the expert badge&lt;br&gt;&lt;/div&gt;" style="text;html=1;strokeColor=none;fillColor=none;align=center;verticalAlign=middle;whiteSpace=wrap;rounded=0;movable=1;resizable=1;rotatable=1;deletable=1;editable=1;locked=0;connectable=1;" vertex="1" parent="1">
          <mxGeometry x="220" y="410" width="120" height="30" as="geometry" />
        </mxCell>
        <mxCell id="naxjawQE2bDCA0yBPAnP-4" value="" style="endArrow=block;dashed=1;endFill=0;endSize=12;html=1;rounded=0;" edge="1" parent="1">
          <mxGeometry width="160" relative="1" as="geometry">
            <mxPoint x="355" y="440" as="sourcePoint" />
            <mxPoint x="205" y="440" as="targetPoint" />
          </mxGeometry>
        </mxCell>
        <mxCell id="qQp0_Dav2U8Ifcp5pkcD-5" value="" style="html=1;points=[];perimeter=orthogonalPerimeter;outlineConnect=0;targetShapes=umlLifeline;portConstraint=eastwest;newEdgeStyle={&quot;edgeStyle&quot;:&quot;elbowEdgeStyle&quot;,&quot;elbow&quot;:&quot;vertical&quot;,&quot;curved&quot;:0,&quot;rounded&quot;:0};container=0;movable=1;resizable=1;rotatable=1;deletable=1;editable=1;locked=0;connectable=1;" vertex="1" parent="1">
          <mxGeometry x="195" y="180" width="10" height="80" as="geometry" />
        </mxCell>
        <mxCell id="naxjawQE2bDCA0yBPAnP-7" value="" style="html=1;points=[];perimeter=orthogonalPerimeter;outlineConnect=0;targetShapes=umlLifeline;portConstraint=eastwest;newEdgeStyle={&quot;edgeStyle&quot;:&quot;elbowEdgeStyle&quot;,&quot;elbow&quot;:&quot;vertical&quot;,&quot;curved&quot;:0,&quot;rounded&quot;:0};container=0;movable=1;resizable=1;rotatable=1;deletable=1;editable=1;locked=0;connectable=1;" vertex="1" parent="1">
          <mxGeometry x="195" y="360" width="10" height="40" as="geometry" />
        </mxCell>
        <mxCell id="2TQHQLVgCy4hRK9faJUg-1" value="" style="html=1;points=[];perimeter=orthogonalPerimeter;outlineConnect=0;targetShapes=umlLifeline;portConstraint=eastwest;newEdgeStyle={&quot;edgeStyle&quot;:&quot;elbowEdgeStyle&quot;,&quot;elbow&quot;:&quot;vertical&quot;,&quot;curved&quot;:0,&quot;rounded&quot;:0};container=0;movable=1;resizable=1;rotatable=1;deletable=1;editable=1;locked=0;connectable=1;" vertex="1" parent="1">
          <mxGeometry x="195" y="440" width="10" height="80" as="geometry" />
        </mxCell>
      </root>
    </mxGraphModel>
  </diagram>
  <diagram id="pvqYrwJCa63q6MkAIUZb" name="UML (UseCase)">
    <mxGraphModel dx="2068" dy="828" grid="1" gridSize="10" guides="1" tooltips="1" connect="1" arrows="1" fold="1" page="1" pageScale="1" pageWidth="1169" pageHeight="827" math="0" shadow="0">
      <root>
        <mxCell id="0" />
        <mxCell id="1" parent="0" />
        <mxCell id="MVpQLZ_E9T1feZUFkWiu-11" value="" style="rounded=0;whiteSpace=wrap;html=1;" parent="1" vertex="1">
          <mxGeometry x="300" y="100" width="560" height="610" as="geometry" />
        </mxCell>
        <mxCell id="0sx2mBVtjhXLEeRQusRD-8" style="rounded=0;orthogonalLoop=1;jettySize=auto;html=1;" parent="1" source="0sx2mBVtjhXLEeRQusRD-2" target="0sx2mBVtjhXLEeRQusRD-5" edge="1">
          <mxGeometry relative="1" as="geometry">
            <Array as="points" />
          </mxGeometry>
        </mxCell>
        <mxCell id="MVpQLZ_E9T1feZUFkWiu-7" style="rounded=0;orthogonalLoop=1;jettySize=auto;html=1;entryX=0;entryY=0.5;entryDx=0;entryDy=0;" parent="1" source="0sx2mBVtjhXLEeRQusRD-2" target="LddxRD4UYi9cKxbXgiJu-13" edge="1">
          <mxGeometry relative="1" as="geometry">
            <Array as="points">
              <mxPoint x="250" y="680" />
            </Array>
          </mxGeometry>
        </mxCell>
        <mxCell id="MVpQLZ_E9T1feZUFkWiu-27" style="rounded=0;orthogonalLoop=1;jettySize=auto;html=1;" parent="1" source="0sx2mBVtjhXLEeRQusRD-2" target="MVpQLZ_E9T1feZUFkWiu-25" edge="1">
          <mxGeometry relative="1" as="geometry" />
        </mxCell>
        <mxCell id="MVpQLZ_E9T1feZUFkWiu-35" style="rounded=0;orthogonalLoop=1;jettySize=auto;html=1;" parent="1" source="0sx2mBVtjhXLEeRQusRD-2" target="MVpQLZ_E9T1feZUFkWiu-30" edge="1">
          <mxGeometry relative="1" as="geometry" />
        </mxCell>
        <mxCell id="MVpQLZ_E9T1feZUFkWiu-44" style="rounded=0;orthogonalLoop=1;jettySize=auto;html=1;" parent="1" source="0sx2mBVtjhXLEeRQusRD-2" target="MVpQLZ_E9T1feZUFkWiu-41" edge="1">
          <mxGeometry relative="1" as="geometry" />
        </mxCell>
        <mxCell id="T50EwERzjcpUyhJfIaFM-3" style="rounded=0;orthogonalLoop=1;jettySize=auto;html=1;" edge="1" parent="1" source="0sx2mBVtjhXLEeRQusRD-2" target="T50EwERzjcpUyhJfIaFM-1">
          <mxGeometry relative="1" as="geometry" />
        </mxCell>
        <mxCell id="0sx2mBVtjhXLEeRQusRD-2" value="Mahasiswa" style="shape=umlActor;verticalLabelPosition=bottom;verticalAlign=top;html=1;" parent="1" vertex="1">
          <mxGeometry x="140" y="385" width="30" height="60" as="geometry" />
        </mxCell>
        <mxCell id="0sx2mBVtjhXLEeRQusRD-9" style="rounded=0;orthogonalLoop=1;jettySize=auto;html=1;" parent="1" source="0sx2mBVtjhXLEeRQusRD-4" target="0sx2mBVtjhXLEeRQusRD-5" edge="1">
          <mxGeometry relative="1" as="geometry">
            <Array as="points">
              <mxPoint x="1020" y="500" />
            </Array>
          </mxGeometry>
        </mxCell>
        <mxCell id="Bt8VvY5KGU5PuNIr9_MJ-2" style="rounded=0;orthogonalLoop=1;jettySize=auto;html=1;entryX=1;entryY=0.5;entryDx=0;entryDy=0;" parent="1" source="0sx2mBVtjhXLEeRQusRD-4" target="Bt8VvY5KGU5PuNIr9_MJ-1" edge="1">
          <mxGeometry relative="1" as="geometry">
            <Array as="points">
              <mxPoint x="990" y="384" />
            </Array>
          </mxGeometry>
        </mxCell>
        <mxCell id="Bt8VvY5KGU5PuNIr9_MJ-17" style="rounded=0;orthogonalLoop=1;jettySize=auto;html=1;" parent="1" source="0sx2mBVtjhXLEeRQusRD-4" target="Bt8VvY5KGU5PuNIr9_MJ-16" edge="1">
          <mxGeometry relative="1" as="geometry" />
        </mxCell>
        <mxCell id="LddxRD4UYi9cKxbXgiJu-11" style="rounded=0;orthogonalLoop=1;jettySize=auto;html=1;" parent="1" source="0sx2mBVtjhXLEeRQusRD-4" target="LddxRD4UYi9cKxbXgiJu-14" edge="1">
          <mxGeometry relative="1" as="geometry">
            <mxPoint x="678.9753662339099" y="595.4293354379554" as="targetPoint" />
            <Array as="points">
              <mxPoint x="1040" y="550" />
            </Array>
          </mxGeometry>
        </mxCell>
        <mxCell id="MVpQLZ_E9T1feZUFkWiu-4" style="rounded=0;orthogonalLoop=1;jettySize=auto;html=1;" parent="1" source="0sx2mBVtjhXLEeRQusRD-4" target="LddxRD4UYi9cKxbXgiJu-12" edge="1">
          <mxGeometry relative="1" as="geometry">
            <Array as="points">
              <mxPoint x="1000" y="240" />
            </Array>
          </mxGeometry>
        </mxCell>
        <mxCell id="MVpQLZ_E9T1feZUFkWiu-6" style="rounded=0;orthogonalLoop=1;jettySize=auto;html=1;entryX=1;entryY=0.5;entryDx=0;entryDy=0;" parent="1" source="0sx2mBVtjhXLEeRQusRD-4" target="LddxRD4UYi9cKxbXgiJu-13" edge="1">
          <mxGeometry relative="1" as="geometry">
            <Array as="points">
              <mxPoint x="1090" y="680" />
            </Array>
          </mxGeometry>
        </mxCell>
        <mxCell id="T50EwERzjcpUyhJfIaFM-9" style="edgeStyle=orthogonalEdgeStyle;rounded=0;orthogonalLoop=1;jettySize=auto;html=1;" edge="1" parent="1" source="0sx2mBVtjhXLEeRQusRD-4" target="T50EwERzjcpUyhJfIaFM-4">
          <mxGeometry relative="1" as="geometry">
            <Array as="points">
              <mxPoint x="1150" y="394" />
              <mxPoint x="1150" y="740" />
              <mxPoint x="360" y="740" />
            </Array>
          </mxGeometry>
        </mxCell>
        <mxCell id="0sx2mBVtjhXLEeRQusRD-4" value="UMKM" style="shape=umlActor;verticalLabelPosition=bottom;verticalAlign=top;html=1;" parent="1" vertex="1">
          <mxGeometry x="1080" y="364" width="30" height="60" as="geometry" />
        </mxCell>
        <mxCell id="0sx2mBVtjhXLEeRQusRD-5" value="login" style="ellipse;whiteSpace=wrap;html=1;" parent="1" vertex="1">
          <mxGeometry x="530" y="490" width="70" height="30" as="geometry" />
        </mxCell>
        <mxCell id="Bt8VvY5KGU5PuNIr9_MJ-1" value="job uploading" style="ellipse;whiteSpace=wrap;html=1;" parent="1" vertex="1">
          <mxGeometry x="720" y="350" width="70" height="40" as="geometry" />
        </mxCell>
        <mxCell id="Bt8VvY5KGU5PuNIr9_MJ-4" value="mix and match" style="ellipse;whiteSpace=wrap;html=1;" parent="1" vertex="1">
          <mxGeometry x="780" y="260" width="70" height="40" as="geometry" />
        </mxCell>
        <mxCell id="Bt8VvY5KGU5PuNIr9_MJ-11" value="&amp;lt;&amp;lt;include&amp;gt;&amp;gt;" style="endArrow=open;endSize=12;dashed=1;html=1;rounded=0;" parent="1" source="Bt8VvY5KGU5PuNIr9_MJ-1" target="0sx2mBVtjhXLEeRQusRD-5" edge="1">
          <mxGeometry width="160" relative="1" as="geometry">
            <mxPoint x="420" y="380" as="sourcePoint" />
            <mxPoint x="580" y="380" as="targetPoint" />
          </mxGeometry>
        </mxCell>
        <mxCell id="Bt8VvY5KGU5PuNIr9_MJ-12" value="&amp;lt;&amp;lt;extend&amp;gt;&amp;gt;" style="endArrow=open;endSize=12;dashed=1;html=1;rounded=0;" parent="1" source="Bt8VvY5KGU5PuNIr9_MJ-4" target="Bt8VvY5KGU5PuNIr9_MJ-1" edge="1">
          <mxGeometry width="160" relative="1" as="geometry">
            <mxPoint x="420" y="380" as="sourcePoint" />
            <mxPoint x="580" y="380" as="targetPoint" />
          </mxGeometry>
        </mxCell>
        <mxCell id="Bt8VvY5KGU5PuNIr9_MJ-13" value="boost ads" style="ellipse;whiteSpace=wrap;html=1;" parent="1" vertex="1">
          <mxGeometry x="670" y="270" width="70" height="40" as="geometry" />
        </mxCell>
        <mxCell id="Bt8VvY5KGU5PuNIr9_MJ-15" value="&amp;lt;&amp;lt;extend&amp;gt;&amp;gt;" style="endArrow=open;endSize=12;dashed=1;html=1;rounded=0;" parent="1" source="Bt8VvY5KGU5PuNIr9_MJ-13" target="Bt8VvY5KGU5PuNIr9_MJ-1" edge="1">
          <mxGeometry width="160" relative="1" as="geometry">
            <mxPoint x="410" y="340" as="sourcePoint" />
            <mxPoint x="570" y="340" as="targetPoint" />
          </mxGeometry>
        </mxCell>
        <mxCell id="Bt8VvY5KGU5PuNIr9_MJ-18" value="&amp;lt;&amp;lt;include&amp;gt;&amp;gt;" style="endArrow=open;endSize=12;dashed=1;html=1;rounded=0;" parent="1" source="Bt8VvY5KGU5PuNIr9_MJ-16" target="0sx2mBVtjhXLEeRQusRD-5" edge="1">
          <mxGeometry width="160" relative="1" as="geometry">
            <mxPoint x="460" y="500" as="sourcePoint" />
            <mxPoint x="620" y="500" as="targetPoint" />
          </mxGeometry>
        </mxCell>
        <mxCell id="LddxRD4UYi9cKxbXgiJu-1" value="daftar akun" style="ellipse;whiteSpace=wrap;html=1;" parent="1" vertex="1">
          <mxGeometry x="600" y="600" width="70" height="40" as="geometry" />
        </mxCell>
        <mxCell id="LddxRD4UYi9cKxbXgiJu-6" value="&amp;lt;&amp;lt;include&amp;gt;&amp;gt;" style="endArrow=open;endSize=12;dashed=1;html=1;rounded=0;" parent="1" source="0sx2mBVtjhXLEeRQusRD-5" target="LddxRD4UYi9cKxbXgiJu-1" edge="1">
          <mxGeometry width="160" relative="1" as="geometry">
            <mxPoint x="581" y="555" as="sourcePoint" />
            <mxPoint x="485" y="497" as="targetPoint" />
          </mxGeometry>
        </mxCell>
        <mxCell id="LddxRD4UYi9cKxbXgiJu-9" value="&amp;lt;&amp;lt;include&amp;gt;&amp;gt;" style="endArrow=open;endSize=12;dashed=1;html=1;rounded=0;" parent="1" source="LddxRD4UYi9cKxbXgiJu-14" target="0sx2mBVtjhXLEeRQusRD-5" edge="1">
          <mxGeometry width="160" relative="1" as="geometry">
            <mxPoint x="640.0277055526508" y="591.9223407783859" as="sourcePoint" />
            <mxPoint x="565" y="487" as="targetPoint" />
          </mxGeometry>
        </mxCell>
        <mxCell id="LddxRD4UYi9cKxbXgiJu-14" value="list job" style="ellipse;whiteSpace=wrap;html=1;" parent="1" vertex="1">
          <mxGeometry x="760" y="530" width="70" height="40" as="geometry" />
        </mxCell>
        <mxCell id="MVpQLZ_E9T1feZUFkWiu-2" value="&amp;lt;&amp;lt;include&amp;gt;&amp;gt;" style="endArrow=open;endSize=12;dashed=1;html=1;rounded=0;" parent="1" source="LddxRD4UYi9cKxbXgiJu-12" target="0sx2mBVtjhXLEeRQusRD-5" edge="1">
          <mxGeometry width="160" relative="1" as="geometry">
            <mxPoint x="700" y="594" as="sourcePoint" />
            <mxPoint x="562" y="488" as="targetPoint" />
          </mxGeometry>
        </mxCell>
        <mxCell id="MVpQLZ_E9T1feZUFkWiu-5" value="&amp;lt;&amp;lt;include&amp;gt;&amp;gt;" style="endArrow=open;endSize=12;dashed=1;html=1;rounded=0;entryX=0.5;entryY=1;entryDx=0;entryDy=0;" parent="1" source="LddxRD4UYi9cKxbXgiJu-13" target="0sx2mBVtjhXLEeRQusRD-5" edge="1">
          <mxGeometry width="160" relative="1" as="geometry">
            <mxPoint x="700" y="594" as="sourcePoint" />
            <mxPoint x="562" y="488" as="targetPoint" />
          </mxGeometry>
        </mxCell>
        <mxCell id="MVpQLZ_E9T1feZUFkWiu-12" value="&lt;div&gt;&amp;lt;&amp;lt;system&amp;gt;&amp;gt;&lt;/div&gt;&lt;div&gt;nama aplikasi&lt;br&gt;&lt;/div&gt;" style="text;html=1;strokeColor=none;fillColor=none;align=center;verticalAlign=middle;whiteSpace=wrap;rounded=0;" parent="1" vertex="1">
          <mxGeometry x="300" y="100" width="120" height="50" as="geometry" />
        </mxCell>
        <mxCell id="LddxRD4UYi9cKxbXgiJu-13" value="edit profile" style="ellipse;whiteSpace=wrap;html=1;" parent="1" vertex="1">
          <mxGeometry x="490" y="660" width="70" height="40" as="geometry" />
        </mxCell>
        <mxCell id="LddxRD4UYi9cKxbXgiJu-12" value="verified" style="ellipse;whiteSpace=wrap;html=1;" parent="1" vertex="1">
          <mxGeometry x="610" y="220" width="70" height="40" as="geometry" />
        </mxCell>
        <mxCell id="Bt8VvY5KGU5PuNIr9_MJ-16" value="centang biru" style="ellipse;whiteSpace=wrap;html=1;" parent="1" vertex="1">
          <mxGeometry x="760" y="423" width="70" height="40" as="geometry" />
        </mxCell>
        <mxCell id="MVpQLZ_E9T1feZUFkWiu-24" style="rounded=0;orthogonalLoop=1;jettySize=auto;html=1;" parent="1" source="MVpQLZ_E9T1feZUFkWiu-23" target="LddxRD4UYi9cKxbXgiJu-12" edge="1">
          <mxGeometry relative="1" as="geometry" />
        </mxCell>
        <mxCell id="MVpQLZ_E9T1feZUFkWiu-26" style="rounded=0;orthogonalLoop=1;jettySize=auto;html=1;" parent="1" source="MVpQLZ_E9T1feZUFkWiu-23" target="MVpQLZ_E9T1feZUFkWiu-25" edge="1">
          <mxGeometry relative="1" as="geometry" />
        </mxCell>
        <mxCell id="MVpQLZ_E9T1feZUFkWiu-23" value="&lt;div&gt;Pihak&lt;/div&gt;&lt;div&gt;Perusahaan&lt;/div&gt;" style="shape=umlActor;verticalLabelPosition=bottom;verticalAlign=top;html=1;" parent="1" vertex="1">
          <mxGeometry x="930" y="90" width="30" height="60" as="geometry" />
        </mxCell>
        <mxCell id="MVpQLZ_E9T1feZUFkWiu-25" value="badge expert" style="ellipse;whiteSpace=wrap;html=1;" parent="1" vertex="1">
          <mxGeometry x="545" y="160" width="70" height="40" as="geometry" />
        </mxCell>
        <mxCell id="MVpQLZ_E9T1feZUFkWiu-28" value="&amp;lt;&amp;lt;include&amp;gt;&amp;gt;" style="endArrow=open;endSize=12;dashed=1;html=1;rounded=0;" parent="1" source="MVpQLZ_E9T1feZUFkWiu-25" target="0sx2mBVtjhXLEeRQusRD-5" edge="1">
          <mxGeometry width="160" relative="1" as="geometry">
            <mxPoint x="715" y="239" as="sourcePoint" />
            <mxPoint x="570" y="500" as="targetPoint" />
          </mxGeometry>
        </mxCell>
        <mxCell id="MVpQLZ_E9T1feZUFkWiu-30" value="badge peringkat" style="ellipse;whiteSpace=wrap;html=1;" parent="1" vertex="1">
          <mxGeometry x="430" y="330" width="70" height="40" as="geometry" />
        </mxCell>
        <mxCell id="MVpQLZ_E9T1feZUFkWiu-36" value="&amp;lt;&amp;lt;include&amp;gt;&amp;gt;" style="endArrow=open;endSize=12;dashed=1;html=1;rounded=0;" parent="1" source="MVpQLZ_E9T1feZUFkWiu-30" target="0sx2mBVtjhXLEeRQusRD-5" edge="1">
          <mxGeometry width="160" relative="1" as="geometry">
            <mxPoint x="547" y="170" as="sourcePoint" />
            <mxPoint x="574" y="500" as="targetPoint" />
          </mxGeometry>
        </mxCell>
        <mxCell id="MVpQLZ_E9T1feZUFkWiu-41" value="list hasil kerja" style="ellipse;whiteSpace=wrap;html=1;" parent="1" vertex="1">
          <mxGeometry x="370" y="385" width="70" height="40" as="geometry" />
        </mxCell>
        <mxCell id="MVpQLZ_E9T1feZUFkWiu-43" value="&amp;lt;&amp;lt;include&amp;gt;&amp;gt;" style="endArrow=open;endSize=12;dashed=1;html=1;rounded=0;" parent="1" source="MVpQLZ_E9T1feZUFkWiu-41" target="0sx2mBVtjhXLEeRQusRD-5" edge="1">
          <mxGeometry width="160" relative="1" as="geometry">
            <mxPoint x="468" y="368" as="sourcePoint" />
            <mxPoint x="565" y="501" as="targetPoint" />
          </mxGeometry>
        </mxCell>
        <mxCell id="T50EwERzjcpUyhJfIaFM-1" value="detail job" style="ellipse;whiteSpace=wrap;html=1;" vertex="1" parent="1">
          <mxGeometry x="340" y="510" width="70" height="40" as="geometry" />
        </mxCell>
        <mxCell id="T50EwERzjcpUyhJfIaFM-2" value="&amp;lt;&amp;lt;include&amp;gt;&amp;gt;" style="endArrow=open;endSize=12;dashed=1;html=1;rounded=0;" edge="1" parent="1" source="T50EwERzjcpUyhJfIaFM-1" target="0sx2mBVtjhXLEeRQusRD-5">
          <mxGeometry width="160" relative="1" as="geometry">
            <mxPoint x="439" y="430" as="sourcePoint" />
            <mxPoint x="555" y="503" as="targetPoint" />
          </mxGeometry>
        </mxCell>
        <mxCell id="T50EwERzjcpUyhJfIaFM-4" value="comment" style="ellipse;whiteSpace=wrap;html=1;" vertex="1" parent="1">
          <mxGeometry x="325" y="620" width="70" height="40" as="geometry" />
        </mxCell>
        <mxCell id="T50EwERzjcpUyhJfIaFM-5" value="unggah hasil job" style="ellipse;whiteSpace=wrap;html=1;" vertex="1" parent="1">
          <mxGeometry x="440" y="570" width="70" height="40" as="geometry" />
        </mxCell>
        <mxCell id="T50EwERzjcpUyhJfIaFM-7" value="&amp;lt;&amp;lt;extend&amp;gt;&amp;gt;" style="endArrow=open;endSize=12;dashed=1;html=1;rounded=0;" edge="1" parent="1" source="T50EwERzjcpUyhJfIaFM-4" target="T50EwERzjcpUyhJfIaFM-1">
          <mxGeometry width="160" relative="1" as="geometry">
            <mxPoint x="730" y="338" as="sourcePoint" />
            <mxPoint x="760" y="376" as="targetPoint" />
          </mxGeometry>
        </mxCell>
        <mxCell id="T50EwERzjcpUyhJfIaFM-8" value="&amp;lt;&amp;lt;extend&amp;gt;&amp;gt;" style="endArrow=open;endSize=12;dashed=1;html=1;rounded=0;" edge="1" parent="1" source="T50EwERzjcpUyhJfIaFM-5" target="T50EwERzjcpUyhJfIaFM-1">
          <mxGeometry width="160" relative="1" as="geometry">
            <mxPoint x="373" y="610" as="sourcePoint" />
            <mxPoint x="382" y="560" as="targetPoint" />
          </mxGeometry>
        </mxCell>
        <mxCell id="UHLBu9pznbg-E2OWJfrF-3" style="rounded=0;orthogonalLoop=1;jettySize=auto;html=1;" edge="1" parent="1" source="UHLBu9pznbg-E2OWJfrF-1" target="UHLBu9pznbg-E2OWJfrF-2">
          <mxGeometry relative="1" as="geometry" />
        </mxCell>
        <mxCell id="UHLBu9pznbg-E2OWJfrF-1" value="Guest" style="shape=umlActor;verticalLabelPosition=bottom;verticalAlign=top;html=1;" vertex="1" parent="1">
          <mxGeometry x="160" y="130" width="30" height="60" as="geometry" />
        </mxCell>
        <mxCell id="UHLBu9pznbg-E2OWJfrF-2" value="list all job" style="ellipse;whiteSpace=wrap;html=1;" vertex="1" parent="1">
          <mxGeometry x="390" y="170" width="70" height="40" as="geometry" />
        </mxCell>
      </root>
    </mxGraphModel>
  </diagram>
  <diagram id="wG38NCfPQ-r9ZFnrwSme" name="Architecture">
    <mxGraphModel dx="2278" dy="1380" grid="1" gridSize="10" guides="1" tooltips="1" connect="1" arrows="1" fold="1" page="1" pageScale="1" pageWidth="1169" pageHeight="827" math="0" shadow="0">
      <root>
        <mxCell id="0" />
        <mxCell id="1" parent="0" />
        <mxCell id="jstQxoPoMBIzI20CNz3X-10" value="" style="group;dashed=1;" parent="1" vertex="1" connectable="0">
          <mxGeometry x="1298" y="273" width="910" height="280" as="geometry" />
        </mxCell>
        <mxCell id="jstQxoPoMBIzI20CNz3X-11" value="" style="rounded=0;whiteSpace=wrap;html=1;fontSize=16;dashed=1;dashPattern=8 8;" parent="jstQxoPoMBIzI20CNz3X-10" vertex="1">
          <mxGeometry x="390" width="520" height="280" as="geometry" />
        </mxCell>
        <mxCell id="jstQxoPoMBIzI20CNz3X-12" value="&lt;font style=&quot;&quot;&gt;Web Server&lt;br&gt;&lt;span style=&quot;font-size: 10px;&quot;&gt;(Node JS)&lt;/span&gt;&lt;/font&gt;" style="rounded=0;whiteSpace=wrap;html=1;fontSize=16;" parent="jstQxoPoMBIzI20CNz3X-10" vertex="1">
          <mxGeometry x="430" y="105" width="120" height="60" as="geometry" />
        </mxCell>
        <mxCell id="jstQxoPoMBIzI20CNz3X-13" value="Client" style="shape=umlActor;verticalLabelPosition=bottom;verticalAlign=top;html=1;outlineConnect=0;fontSize=16;" parent="jstQxoPoMBIzI20CNz3X-10" vertex="1">
          <mxGeometry y="106" width="30" height="60" as="geometry" />
        </mxCell>
        <mxCell id="jstQxoPoMBIzI20CNz3X-14" value="" style="rounded=0;whiteSpace=wrap;html=1;fontSize=16;" parent="jstQxoPoMBIzI20CNz3X-10" vertex="1">
          <mxGeometry x="590" y="30" width="140" height="210" as="geometry" />
        </mxCell>
        <mxCell id="jstQxoPoMBIzI20CNz3X-15" style="edgeStyle=none;curved=1;rounded=0;orthogonalLoop=1;jettySize=auto;html=1;entryX=0;entryY=0.5;entryDx=0;entryDy=0;fontSize=12;startSize=8;endSize=8;" parent="jstQxoPoMBIzI20CNz3X-10" source="jstQxoPoMBIzI20CNz3X-12" target="jstQxoPoMBIzI20CNz3X-14" edge="1">
          <mxGeometry relative="1" as="geometry" />
        </mxCell>
        <mxCell id="jstQxoPoMBIzI20CNz3X-16" value="&lt;font style=&quot;&quot;&gt;&lt;font style=&quot;font-size: 16px;&quot;&gt;Database &lt;/font&gt;&lt;br&gt;&lt;span style=&quot;font-size: 10px;&quot;&gt;(MySQL)&lt;/span&gt;&lt;/font&gt;" style="shape=cylinder3;whiteSpace=wrap;html=1;boundedLbl=1;backgroundOutline=1;size=15;fontSize=16;" parent="jstQxoPoMBIzI20CNz3X-10" vertex="1">
          <mxGeometry x="790" y="65" width="93" height="124" as="geometry" />
        </mxCell>
        <mxCell id="jstQxoPoMBIzI20CNz3X-17" value="" style="rounded=0;whiteSpace=wrap;html=1;fontSize=16;dashed=1;dashPattern=8 8;" parent="jstQxoPoMBIzI20CNz3X-10" vertex="1">
          <mxGeometry x="607.5" y="66" width="105" height="150" as="geometry" />
        </mxCell>
        <mxCell id="jstQxoPoMBIzI20CNz3X-18" value="&lt;font style=&quot;font-size: 10px;&quot;&gt;Router&lt;/font&gt;" style="rounded=0;whiteSpace=wrap;html=1;fontSize=16;" parent="jstQxoPoMBIzI20CNz3X-10" vertex="1">
          <mxGeometry x="618.75" y="86" width="82.5" height="30" as="geometry" />
        </mxCell>
        <mxCell id="jstQxoPoMBIzI20CNz3X-19" value="&lt;span style=&quot;font-size: 10px;&quot;&gt;Controller&lt;/span&gt;" style="rounded=0;whiteSpace=wrap;html=1;fontSize=16;" parent="jstQxoPoMBIzI20CNz3X-10" vertex="1">
          <mxGeometry x="618.75" y="126" width="82.5" height="30" as="geometry" />
        </mxCell>
        <mxCell id="jstQxoPoMBIzI20CNz3X-20" value="&lt;span style=&quot;font-size: 10px;&quot;&gt;Model&lt;/span&gt;" style="rounded=0;whiteSpace=wrap;html=1;fontSize=16;" parent="jstQxoPoMBIzI20CNz3X-10" vertex="1">
          <mxGeometry x="618.75" y="166" width="82.5" height="30" as="geometry" />
        </mxCell>
        <mxCell id="jstQxoPoMBIzI20CNz3X-21" style="edgeStyle=none;curved=1;rounded=0;orthogonalLoop=1;jettySize=auto;html=1;fontSize=12;startSize=8;endSize=8;entryX=0;entryY=0.5;entryDx=0;entryDy=0;" parent="jstQxoPoMBIzI20CNz3X-10" source="jstQxoPoMBIzI20CNz3X-13" target="jstQxoPoMBIzI20CNz3X-24" edge="1">
          <mxGeometry relative="1" as="geometry">
            <mxPoint x="180" y="135" as="targetPoint" />
          </mxGeometry>
        </mxCell>
        <mxCell id="jstQxoPoMBIzI20CNz3X-22" style="edgeStyle=none;curved=1;rounded=0;orthogonalLoop=1;jettySize=auto;html=1;entryX=-0.017;entryY=0.572;entryDx=0;entryDy=0;entryPerimeter=0;fontSize=12;startSize=8;endSize=8;" parent="jstQxoPoMBIzI20CNz3X-10" source="jstQxoPoMBIzI20CNz3X-14" target="jstQxoPoMBIzI20CNz3X-16" edge="1">
          <mxGeometry relative="1" as="geometry" />
        </mxCell>
        <mxCell id="jstQxoPoMBIzI20CNz3X-23" style="edgeStyle=none;curved=1;rounded=0;orthogonalLoop=1;jettySize=auto;html=1;fontSize=12;startSize=8;endSize=8;entryX=0;entryY=0.5;entryDx=0;entryDy=0;" parent="jstQxoPoMBIzI20CNz3X-10" source="jstQxoPoMBIzI20CNz3X-24" target="jstQxoPoMBIzI20CNz3X-12" edge="1">
          <mxGeometry relative="1" as="geometry" />
        </mxCell>
        <mxCell id="jstQxoPoMBIzI20CNz3X-24" value="Web&lt;br&gt;&lt;font style=&quot;font-size: 13px;&quot;&gt;(React JS)&lt;/font&gt;" style="rounded=0;whiteSpace=wrap;html=1;fontSize=16;dashed=1;dashPattern=8 8;" parent="jstQxoPoMBIzI20CNz3X-10" vertex="1">
          <mxGeometry x="190" y="40" width="130" height="189" as="geometry" />
        </mxCell>
        <mxCell id="jstQxoPoMBIzI20CNz3X-25" value="&lt;font style=&quot;font-size: 14px;&quot;&gt;Back End&lt;/font&gt;" style="text;html=1;strokeColor=none;fillColor=none;align=center;verticalAlign=middle;whiteSpace=wrap;rounded=0;fontSize=16;" parent="jstQxoPoMBIzI20CNz3X-10" vertex="1">
          <mxGeometry x="390" width="100" height="30" as="geometry" />
        </mxCell>
        <mxCell id="jstQxoPoMBIzI20CNz3X-26" value="&lt;font style=&quot;font-size: 14px;&quot;&gt;Front End&lt;/font&gt;" style="text;html=1;strokeColor=none;fillColor=none;align=center;verticalAlign=middle;whiteSpace=wrap;rounded=0;fontSize=16;" parent="jstQxoPoMBIzI20CNz3X-10" vertex="1">
          <mxGeometry x="190" y="40" width="100" height="30" as="geometry" />
        </mxCell>
        <mxCell id="jstQxoPoMBIzI20CNz3X-27" value="&lt;font style=&quot;font-size: 10px;&quot; color=&quot;#ffebeb&quot;&gt;Rest Full&lt;/font&gt;" style="rounded=0;whiteSpace=wrap;html=1;fontSize=16;strokeColor=#FFFDFC;fillColor=#000000;" parent="jstQxoPoMBIzI20CNz3X-10" vertex="1">
          <mxGeometry x="570" y="15" width="70" height="40" as="geometry" />
        </mxCell>
      </root>
    </mxGraphModel>
  </diagram>
  <diagram id="o6HAVMjy3cTr1ZaEWqjh" name="ER Model">
    <mxGraphModel dx="2954" dy="1183" grid="1" gridSize="10" guides="1" tooltips="1" connect="1" arrows="1" fold="1" page="1" pageScale="1" pageWidth="1169" pageHeight="827" math="0" shadow="0">
      <root>
        <mxCell id="0" />
        <mxCell id="1" parent="0" />
        <mxCell id="b2nXdSsl6cwftevA-bAM-50" value="users" style="shape=table;startSize=30;container=1;collapsible=1;childLayout=tableLayout;fixedRows=1;rowLines=0;fontStyle=1;align=center;resizeLast=1;html=1;fontSize=16;" parent="1" vertex="1">
          <mxGeometry x="255" y="303" width="180" height="180" as="geometry" />
        </mxCell>
        <mxCell id="b2nXdSsl6cwftevA-bAM-51" value="" style="shape=tableRow;horizontal=0;startSize=0;swimlaneHead=0;swimlaneBody=0;fillColor=none;collapsible=0;dropTarget=0;points=[[0,0.5],[1,0.5]];portConstraint=eastwest;top=0;left=0;right=0;bottom=1;fontSize=16;" parent="b2nXdSsl6cwftevA-bAM-50" vertex="1">
          <mxGeometry y="30" width="180" height="30" as="geometry" />
        </mxCell>
        <mxCell id="b2nXdSsl6cwftevA-bAM-52" value="PK" style="shape=partialRectangle;connectable=0;fillColor=none;top=0;left=0;bottom=0;right=0;fontStyle=1;overflow=hidden;whiteSpace=wrap;html=1;fontSize=16;" parent="b2nXdSsl6cwftevA-bAM-51" vertex="1">
          <mxGeometry width="30" height="30" as="geometry">
            <mxRectangle width="30" height="30" as="alternateBounds" />
          </mxGeometry>
        </mxCell>
        <mxCell id="b2nXdSsl6cwftevA-bAM-53" value="id" style="shape=partialRectangle;connectable=0;fillColor=none;top=0;left=0;bottom=0;right=0;align=left;spacingLeft=6;fontStyle=5;overflow=hidden;whiteSpace=wrap;html=1;fontSize=16;" parent="b2nXdSsl6cwftevA-bAM-51" vertex="1">
          <mxGeometry x="30" width="150" height="30" as="geometry">
            <mxRectangle width="150" height="30" as="alternateBounds" />
          </mxGeometry>
        </mxCell>
        <mxCell id="b2nXdSsl6cwftevA-bAM-54" value="" style="shape=tableRow;horizontal=0;startSize=0;swimlaneHead=0;swimlaneBody=0;fillColor=none;collapsible=0;dropTarget=0;points=[[0,0.5],[1,0.5]];portConstraint=eastwest;top=0;left=0;right=0;bottom=0;fontSize=16;" parent="b2nXdSsl6cwftevA-bAM-50" vertex="1">
          <mxGeometry y="60" width="180" height="30" as="geometry" />
        </mxCell>
        <mxCell id="b2nXdSsl6cwftevA-bAM-55" value="" style="shape=partialRectangle;connectable=0;fillColor=none;top=0;left=0;bottom=0;right=0;editable=1;overflow=hidden;whiteSpace=wrap;html=1;fontSize=16;" parent="b2nXdSsl6cwftevA-bAM-54" vertex="1">
          <mxGeometry width="30" height="30" as="geometry">
            <mxRectangle width="30" height="30" as="alternateBounds" />
          </mxGeometry>
        </mxCell>
        <mxCell id="b2nXdSsl6cwftevA-bAM-56" value="name" style="shape=partialRectangle;connectable=0;fillColor=none;top=0;left=0;bottom=0;right=0;align=left;spacingLeft=6;overflow=hidden;whiteSpace=wrap;html=1;fontSize=16;" parent="b2nXdSsl6cwftevA-bAM-54" vertex="1">
          <mxGeometry x="30" width="150" height="30" as="geometry">
            <mxRectangle width="150" height="30" as="alternateBounds" />
          </mxGeometry>
        </mxCell>
        <mxCell id="b2nXdSsl6cwftevA-bAM-57" value="" style="shape=tableRow;horizontal=0;startSize=0;swimlaneHead=0;swimlaneBody=0;fillColor=none;collapsible=0;dropTarget=0;points=[[0,0.5],[1,0.5]];portConstraint=eastwest;top=0;left=0;right=0;bottom=0;fontSize=16;" parent="b2nXdSsl6cwftevA-bAM-50" vertex="1">
          <mxGeometry y="90" width="180" height="30" as="geometry" />
        </mxCell>
        <mxCell id="b2nXdSsl6cwftevA-bAM-58" value="" style="shape=partialRectangle;connectable=0;fillColor=none;top=0;left=0;bottom=0;right=0;editable=1;overflow=hidden;whiteSpace=wrap;html=1;fontSize=16;" parent="b2nXdSsl6cwftevA-bAM-57" vertex="1">
          <mxGeometry width="30" height="30" as="geometry">
            <mxRectangle width="30" height="30" as="alternateBounds" />
          </mxGeometry>
        </mxCell>
        <mxCell id="b2nXdSsl6cwftevA-bAM-59" value="email" style="shape=partialRectangle;connectable=0;fillColor=none;top=0;left=0;bottom=0;right=0;align=left;spacingLeft=6;overflow=hidden;whiteSpace=wrap;html=1;fontSize=16;" parent="b2nXdSsl6cwftevA-bAM-57" vertex="1">
          <mxGeometry x="30" width="150" height="30" as="geometry">
            <mxRectangle width="150" height="30" as="alternateBounds" />
          </mxGeometry>
        </mxCell>
        <mxCell id="b2nXdSsl6cwftevA-bAM-60" value="" style="shape=tableRow;horizontal=0;startSize=0;swimlaneHead=0;swimlaneBody=0;fillColor=none;collapsible=0;dropTarget=0;points=[[0,0.5],[1,0.5]];portConstraint=eastwest;top=0;left=0;right=0;bottom=0;fontSize=16;" parent="b2nXdSsl6cwftevA-bAM-50" vertex="1">
          <mxGeometry y="120" width="180" height="30" as="geometry" />
        </mxCell>
        <mxCell id="b2nXdSsl6cwftevA-bAM-61" value="" style="shape=partialRectangle;connectable=0;fillColor=none;top=0;left=0;bottom=0;right=0;editable=1;overflow=hidden;whiteSpace=wrap;html=1;fontSize=16;" parent="b2nXdSsl6cwftevA-bAM-60" vertex="1">
          <mxGeometry width="30" height="30" as="geometry">
            <mxRectangle width="30" height="30" as="alternateBounds" />
          </mxGeometry>
        </mxCell>
        <mxCell id="b2nXdSsl6cwftevA-bAM-62" value="password" style="shape=partialRectangle;connectable=0;fillColor=none;top=0;left=0;bottom=0;right=0;align=left;spacingLeft=6;overflow=hidden;whiteSpace=wrap;html=1;fontSize=16;" parent="b2nXdSsl6cwftevA-bAM-60" vertex="1">
          <mxGeometry x="30" width="150" height="30" as="geometry">
            <mxRectangle width="150" height="30" as="alternateBounds" />
          </mxGeometry>
        </mxCell>
        <mxCell id="b2nXdSsl6cwftevA-bAM-63" value="" style="shape=tableRow;horizontal=0;startSize=0;swimlaneHead=0;swimlaneBody=0;fillColor=none;collapsible=0;dropTarget=0;points=[[0,0.5],[1,0.5]];portConstraint=eastwest;top=0;left=0;right=0;bottom=0;fontSize=16;" parent="b2nXdSsl6cwftevA-bAM-50" vertex="1">
          <mxGeometry y="150" width="180" height="30" as="geometry" />
        </mxCell>
        <mxCell id="b2nXdSsl6cwftevA-bAM-64" value="" style="shape=partialRectangle;connectable=0;fillColor=none;top=0;left=0;bottom=0;right=0;editable=1;overflow=hidden;whiteSpace=wrap;html=1;fontSize=16;" parent="b2nXdSsl6cwftevA-bAM-63" vertex="1">
          <mxGeometry width="30" height="30" as="geometry">
            <mxRectangle width="30" height="30" as="alternateBounds" />
          </mxGeometry>
        </mxCell>
        <mxCell id="b2nXdSsl6cwftevA-bAM-65" value="isAdmin" style="shape=partialRectangle;connectable=0;fillColor=none;top=0;left=0;bottom=0;right=0;align=left;spacingLeft=6;overflow=hidden;whiteSpace=wrap;html=1;fontSize=16;" parent="b2nXdSsl6cwftevA-bAM-63" vertex="1">
          <mxGeometry x="30" width="150" height="30" as="geometry">
            <mxRectangle width="150" height="30" as="alternateBounds" />
          </mxGeometry>
        </mxCell>
        <mxCell id="b2nXdSsl6cwftevA-bAM-66" value="articles" style="shape=table;startSize=30;container=1;collapsible=1;childLayout=tableLayout;fixedRows=1;rowLines=0;fontStyle=1;align=center;resizeLast=1;html=1;fontSize=16;" parent="1" vertex="1">
          <mxGeometry x="735" y="314" width="180" height="210" as="geometry" />
        </mxCell>
        <mxCell id="b2nXdSsl6cwftevA-bAM-67" value="" style="shape=tableRow;horizontal=0;startSize=0;swimlaneHead=0;swimlaneBody=0;fillColor=none;collapsible=0;dropTarget=0;points=[[0,0.5],[1,0.5]];portConstraint=eastwest;top=0;left=0;right=0;bottom=1;fontSize=16;" parent="b2nXdSsl6cwftevA-bAM-66" vertex="1">
          <mxGeometry y="30" width="180" height="30" as="geometry" />
        </mxCell>
        <mxCell id="b2nXdSsl6cwftevA-bAM-68" value="PK" style="shape=partialRectangle;connectable=0;fillColor=none;top=0;left=0;bottom=0;right=0;fontStyle=1;overflow=hidden;whiteSpace=wrap;html=1;fontSize=16;" parent="b2nXdSsl6cwftevA-bAM-67" vertex="1">
          <mxGeometry width="30" height="30" as="geometry">
            <mxRectangle width="30" height="30" as="alternateBounds" />
          </mxGeometry>
        </mxCell>
        <mxCell id="b2nXdSsl6cwftevA-bAM-69" value="id" style="shape=partialRectangle;connectable=0;fillColor=none;top=0;left=0;bottom=0;right=0;align=left;spacingLeft=6;fontStyle=5;overflow=hidden;whiteSpace=wrap;html=1;fontSize=16;" parent="b2nXdSsl6cwftevA-bAM-67" vertex="1">
          <mxGeometry x="30" width="150" height="30" as="geometry">
            <mxRectangle width="150" height="30" as="alternateBounds" />
          </mxGeometry>
        </mxCell>
        <mxCell id="b2nXdSsl6cwftevA-bAM-70" value="" style="shape=tableRow;horizontal=0;startSize=0;swimlaneHead=0;swimlaneBody=0;fillColor=none;collapsible=0;dropTarget=0;points=[[0,0.5],[1,0.5]];portConstraint=eastwest;top=0;left=0;right=0;bottom=0;fontSize=16;" parent="b2nXdSsl6cwftevA-bAM-66" vertex="1">
          <mxGeometry y="60" width="180" height="30" as="geometry" />
        </mxCell>
        <mxCell id="b2nXdSsl6cwftevA-bAM-71" value="" style="shape=partialRectangle;connectable=0;fillColor=none;top=0;left=0;bottom=0;right=0;editable=1;overflow=hidden;whiteSpace=wrap;html=1;fontSize=16;" parent="b2nXdSsl6cwftevA-bAM-70" vertex="1">
          <mxGeometry width="30" height="30" as="geometry">
            <mxRectangle width="30" height="30" as="alternateBounds" />
          </mxGeometry>
        </mxCell>
        <mxCell id="b2nXdSsl6cwftevA-bAM-72" value="title" style="shape=partialRectangle;connectable=0;fillColor=none;top=0;left=0;bottom=0;right=0;align=left;spacingLeft=6;overflow=hidden;whiteSpace=wrap;html=1;fontSize=16;" parent="b2nXdSsl6cwftevA-bAM-70" vertex="1">
          <mxGeometry x="30" width="150" height="30" as="geometry">
            <mxRectangle width="150" height="30" as="alternateBounds" />
          </mxGeometry>
        </mxCell>
        <mxCell id="b2nXdSsl6cwftevA-bAM-73" value="" style="shape=tableRow;horizontal=0;startSize=0;swimlaneHead=0;swimlaneBody=0;fillColor=none;collapsible=0;dropTarget=0;points=[[0,0.5],[1,0.5]];portConstraint=eastwest;top=0;left=0;right=0;bottom=0;fontSize=16;" parent="b2nXdSsl6cwftevA-bAM-66" vertex="1">
          <mxGeometry y="90" width="180" height="30" as="geometry" />
        </mxCell>
        <mxCell id="b2nXdSsl6cwftevA-bAM-74" value="" style="shape=partialRectangle;connectable=0;fillColor=none;top=0;left=0;bottom=0;right=0;editable=1;overflow=hidden;whiteSpace=wrap;html=1;fontSize=16;" parent="b2nXdSsl6cwftevA-bAM-73" vertex="1">
          <mxGeometry width="30" height="30" as="geometry">
            <mxRectangle width="30" height="30" as="alternateBounds" />
          </mxGeometry>
        </mxCell>
        <mxCell id="b2nXdSsl6cwftevA-bAM-75" value="slug" style="shape=partialRectangle;connectable=0;fillColor=none;top=0;left=0;bottom=0;right=0;align=left;spacingLeft=6;overflow=hidden;whiteSpace=wrap;html=1;fontSize=16;" parent="b2nXdSsl6cwftevA-bAM-73" vertex="1">
          <mxGeometry x="30" width="150" height="30" as="geometry">
            <mxRectangle width="150" height="30" as="alternateBounds" />
          </mxGeometry>
        </mxCell>
        <mxCell id="b2nXdSsl6cwftevA-bAM-76" value="" style="shape=tableRow;horizontal=0;startSize=0;swimlaneHead=0;swimlaneBody=0;fillColor=none;collapsible=0;dropTarget=0;points=[[0,0.5],[1,0.5]];portConstraint=eastwest;top=0;left=0;right=0;bottom=0;fontSize=16;" parent="b2nXdSsl6cwftevA-bAM-66" vertex="1">
          <mxGeometry y="120" width="180" height="30" as="geometry" />
        </mxCell>
        <mxCell id="b2nXdSsl6cwftevA-bAM-77" value="" style="shape=partialRectangle;connectable=0;fillColor=none;top=0;left=0;bottom=0;right=0;editable=1;overflow=hidden;whiteSpace=wrap;html=1;fontSize=16;" parent="b2nXdSsl6cwftevA-bAM-76" vertex="1">
          <mxGeometry width="30" height="30" as="geometry">
            <mxRectangle width="30" height="30" as="alternateBounds" />
          </mxGeometry>
        </mxCell>
        <mxCell id="b2nXdSsl6cwftevA-bAM-78" value="description" style="shape=partialRectangle;connectable=0;fillColor=none;top=0;left=0;bottom=0;right=0;align=left;spacingLeft=6;overflow=hidden;whiteSpace=wrap;html=1;fontSize=16;" parent="b2nXdSsl6cwftevA-bAM-76" vertex="1">
          <mxGeometry x="30" width="150" height="30" as="geometry">
            <mxRectangle width="150" height="30" as="alternateBounds" />
          </mxGeometry>
        </mxCell>
        <mxCell id="b2nXdSsl6cwftevA-bAM-79" value="" style="shape=tableRow;horizontal=0;startSize=0;swimlaneHead=0;swimlaneBody=0;fillColor=none;collapsible=0;dropTarget=0;points=[[0,0.5],[1,0.5]];portConstraint=eastwest;top=0;left=0;right=0;bottom=0;fontSize=16;" parent="b2nXdSsl6cwftevA-bAM-66" vertex="1">
          <mxGeometry y="150" width="180" height="30" as="geometry" />
        </mxCell>
        <mxCell id="b2nXdSsl6cwftevA-bAM-80" value="" style="shape=partialRectangle;connectable=0;fillColor=none;top=0;left=0;bottom=0;right=0;editable=1;overflow=hidden;whiteSpace=wrap;html=1;fontSize=16;" parent="b2nXdSsl6cwftevA-bAM-79" vertex="1">
          <mxGeometry width="30" height="30" as="geometry">
            <mxRectangle width="30" height="30" as="alternateBounds" />
          </mxGeometry>
        </mxCell>
        <mxCell id="b2nXdSsl6cwftevA-bAM-81" value="image" style="shape=partialRectangle;connectable=0;fillColor=none;top=0;left=0;bottom=0;right=0;align=left;spacingLeft=6;overflow=hidden;whiteSpace=wrap;html=1;fontSize=16;" parent="b2nXdSsl6cwftevA-bAM-79" vertex="1">
          <mxGeometry x="30" width="150" height="30" as="geometry">
            <mxRectangle width="150" height="30" as="alternateBounds" />
          </mxGeometry>
        </mxCell>
        <mxCell id="b2nXdSsl6cwftevA-bAM-82" value="" style="shape=tableRow;horizontal=0;startSize=0;swimlaneHead=0;swimlaneBody=0;fillColor=none;collapsible=0;dropTarget=0;points=[[0,0.5],[1,0.5]];portConstraint=eastwest;top=0;left=0;right=0;bottom=0;fontSize=16;" parent="b2nXdSsl6cwftevA-bAM-66" vertex="1">
          <mxGeometry y="180" width="180" height="30" as="geometry" />
        </mxCell>
        <mxCell id="b2nXdSsl6cwftevA-bAM-83" value="" style="shape=partialRectangle;connectable=0;fillColor=none;top=0;left=0;bottom=0;right=0;editable=1;overflow=hidden;whiteSpace=wrap;html=1;fontSize=16;" parent="b2nXdSsl6cwftevA-bAM-82" vertex="1">
          <mxGeometry width="30" height="30" as="geometry">
            <mxRectangle width="30" height="30" as="alternateBounds" />
          </mxGeometry>
        </mxCell>
        <mxCell id="b2nXdSsl6cwftevA-bAM-84" value="isDraft" style="shape=partialRectangle;connectable=0;fillColor=none;top=0;left=0;bottom=0;right=0;align=left;spacingLeft=6;overflow=hidden;whiteSpace=wrap;html=1;fontSize=16;" parent="b2nXdSsl6cwftevA-bAM-82" vertex="1">
          <mxGeometry x="30" width="150" height="30" as="geometry">
            <mxRectangle width="150" height="30" as="alternateBounds" />
          </mxGeometry>
        </mxCell>
        <mxCell id="b2nXdSsl6cwftevA-bAM-85" value="article" style="shape=table;startSize=30;container=1;collapsible=1;childLayout=tableLayout;fixedRows=1;rowLines=0;fontStyle=1;align=center;resizeLast=1;html=1;fontSize=16;" parent="1" vertex="1">
          <mxGeometry x="495" y="363" width="180" height="90" as="geometry" />
        </mxCell>
        <mxCell id="b2nXdSsl6cwftevA-bAM-86" value="" style="shape=tableRow;horizontal=0;startSize=0;swimlaneHead=0;swimlaneBody=0;fillColor=none;collapsible=0;dropTarget=0;points=[[0,0.5],[1,0.5]];portConstraint=eastwest;top=0;left=0;right=0;bottom=0;fontSize=16;strokeColor=default;swimlaneLine=0;shadow=0;" parent="b2nXdSsl6cwftevA-bAM-85" vertex="1">
          <mxGeometry y="30" width="180" height="30" as="geometry" />
        </mxCell>
        <mxCell id="b2nXdSsl6cwftevA-bAM-87" value="FK" style="shape=partialRectangle;connectable=0;fillColor=none;top=0;left=0;bottom=0;right=0;fontStyle=1;overflow=hidden;whiteSpace=wrap;html=1;fontSize=16;" parent="b2nXdSsl6cwftevA-bAM-86" vertex="1">
          <mxGeometry width="30" height="30" as="geometry">
            <mxRectangle width="30" height="30" as="alternateBounds" />
          </mxGeometry>
        </mxCell>
        <mxCell id="b2nXdSsl6cwftevA-bAM-88" value="id_user" style="shape=partialRectangle;connectable=0;fillColor=none;top=0;left=0;bottom=0;right=0;align=left;spacingLeft=6;fontStyle=5;overflow=hidden;whiteSpace=wrap;html=1;fontSize=16;strokeColor=default;" parent="b2nXdSsl6cwftevA-bAM-86" vertex="1">
          <mxGeometry x="30" width="150" height="30" as="geometry">
            <mxRectangle width="150" height="30" as="alternateBounds" />
          </mxGeometry>
        </mxCell>
        <mxCell id="b2nXdSsl6cwftevA-bAM-89" value="" style="shape=tableRow;horizontal=0;startSize=0;swimlaneHead=0;swimlaneBody=0;fillColor=none;collapsible=0;dropTarget=0;points=[[0,0.5],[1,0.5]];portConstraint=eastwest;top=0;left=0;right=0;bottom=1;fontSize=16;" parent="b2nXdSsl6cwftevA-bAM-85" vertex="1">
          <mxGeometry y="60" width="180" height="30" as="geometry" />
        </mxCell>
        <mxCell id="b2nXdSsl6cwftevA-bAM-90" value="FK" style="shape=partialRectangle;connectable=0;fillColor=none;top=0;left=0;bottom=0;right=0;fontStyle=1;overflow=hidden;whiteSpace=wrap;html=1;fontSize=16;" parent="b2nXdSsl6cwftevA-bAM-89" vertex="1">
          <mxGeometry width="30" height="30" as="geometry">
            <mxRectangle width="30" height="30" as="alternateBounds" />
          </mxGeometry>
        </mxCell>
        <mxCell id="b2nXdSsl6cwftevA-bAM-91" value="id_article" style="shape=partialRectangle;connectable=0;fillColor=none;top=0;left=0;bottom=0;right=0;align=left;spacingLeft=6;fontStyle=5;overflow=hidden;whiteSpace=wrap;html=1;fontSize=16;" parent="b2nXdSsl6cwftevA-bAM-89" vertex="1">
          <mxGeometry x="30" width="150" height="30" as="geometry">
            <mxRectangle width="150" height="30" as="alternateBounds" />
          </mxGeometry>
        </mxCell>
        <mxCell id="b2nXdSsl6cwftevA-bAM-92" value="" style="fontSize=12;html=1;endArrow=ERoneToMany;rounded=0;startSize=8;endSize=8;exitX=1;exitY=0.5;exitDx=0;exitDy=0;entryX=0;entryY=0.5;entryDx=0;entryDy=0;edgeStyle=orthogonalEdgeStyle;" parent="1" source="b2nXdSsl6cwftevA-bAM-51" target="b2nXdSsl6cwftevA-bAM-86" edge="1">
          <mxGeometry width="100" height="100" relative="1" as="geometry">
            <mxPoint x="445" y="449" as="sourcePoint" />
            <mxPoint x="545" y="349" as="targetPoint" />
          </mxGeometry>
        </mxCell>
        <mxCell id="b2nXdSsl6cwftevA-bAM-93" value="" style="fontSize=12;html=1;endArrow=ERoneToMany;rounded=0;startSize=8;endSize=8;exitX=0;exitY=0.5;exitDx=0;exitDy=0;entryX=1;entryY=0.5;entryDx=0;entryDy=0;edgeStyle=orthogonalEdgeStyle;" parent="1" source="b2nXdSsl6cwftevA-bAM-67" target="b2nXdSsl6cwftevA-bAM-89" edge="1">
          <mxGeometry width="100" height="100" relative="1" as="geometry">
            <mxPoint x="425" y="343" as="sourcePoint" />
            <mxPoint x="495" y="414" as="targetPoint" />
          </mxGeometry>
        </mxCell>
      </root>
    </mxGraphModel>
  </diagram>
</mxfile>
